<svg xmlns="http://www.w3.org/2000/svg"><path fill-rule="evenodd" clip-rule="evenodd" d="M93.997 0l-7.345 10.043-8.977-8.615-5.49 11.167L61.846 5.67 58.38 17.618 47 12.592l-1.342 12.374-12.083-2.97.83 12.41-12.415-.825 2.973 12.082L12.593 47l5.027 11.383L5.668 61.85l6.924 10.337-11.164 5.489 8.612 8.979L0 94.003l10.04 7.341-8.612 8.979 11.164 5.488-6.924 10.337 11.952 3.467-5.028 11.383 12.371 1.345-2.973 12.08 12.415-.83-.83 12.415 12.083-2.97L47 175.404l11.38-5.023 3.467 11.952 10.337-6.927 5.491 11.164 8.977-8.615 7.345 10.043 7.346-10.043 8.977 8.615 5.491-11.164 10.339 6.927 3.467-11.952 11.38 5.025 1.34-12.368 12.082 2.97-.829-12.415 12.415.83-2.971-12.08 12.371-1.345-5.025-11.383 11.947-3.467-6.922-10.337 11.167-5.488-8.615-8.979L188 94.001l-10.043-7.346 8.615-8.98-11.167-5.488 6.922-10.337-11.947-3.467L175.405 47l-12.371-1.34 2.971-12.08-12.415.825.829-12.41-12.082 2.97-1.34-12.37-11.38 5.023L126.15 5.67l-10.339 6.921-5.491-11.164-8.977 8.615L93.997 0z"/></svg>
