<svg width="600" height="600" viewBox="0 0 600 600" fill="none" xmlns="http://www.w3.org/2000/svg">
<path d="M205.305 269.645L94.3736 340.554C63.0058 360.605 63.7682 406.677 95.7821 425.679L210.267 493.632C265.731 526.554 334.712 526.698 390.314 494.011L506.371 425.782C538.626 406.82 539.39 360.448 507.777 340.433L395.315 269.232C337.266 232.481 263.194 232.642 205.305 269.645Z" fill="#5627FF"/>
<path fill-rule="evenodd" clip-rule="evenodd" d="M88.9878 332.128L199.919 261.219C261.078 222.125 339.336 221.956 400.664 260.783L513.126 331.984C551.061 356.002 550.145 411.648 511.439 434.402L395.382 502.631C336.639 537.166 263.76 537.013 205.163 502.232L90.6779 434.278C52.2613 411.476 51.3464 356.189 88.9878 332.128ZM94.3736 340.554L205.305 269.645C263.194 232.642 337.266 232.481 395.315 269.232L507.777 340.433C539.39 360.448 538.626 406.82 506.371 425.782L390.314 494.011C334.712 526.698 265.731 526.554 210.267 493.632L95.7821 425.679C63.7682 406.677 63.0059 360.605 94.3736 340.554Z" fill="#05060F"/>
<path d="M205.392 184.784L125.795 235.733C96.9686 254.184 97.6697 296.532 127.091 314.019L210.355 363.507C265.864 396.499 334.935 396.644 390.582 363.886L475.132 314.113C504.775 296.663 505.478 254.039 476.425 235.621L395.585 184.371C337.492 147.542 263.324 147.704 205.392 184.784Z" fill="#AFACFF"/>
<path fill-rule="evenodd" clip-rule="evenodd" d="M120.404 227.31L200.001 176.362C261.206 137.186 339.564 137.016 400.939 175.925L481.78 227.176C517.148 249.598 516.292 301.487 480.205 322.731L395.655 372.504C336.864 407.113 263.891 406.959 205.246 372.103L121.982 322.615C86.1644 301.326 85.3109 249.773 120.404 227.31ZM125.795 235.733L205.392 184.784C263.324 147.704 337.492 147.542 395.585 184.371L476.426 235.621C505.478 254.039 504.775 296.663 475.132 314.113L390.582 363.886C334.935 396.644 265.864 396.499 210.356 363.507L127.091 314.019C97.6697 296.532 96.9686 254.184 125.795 235.733Z" fill="#05060F"/>
<path d="M205.443 96.4285L150.232 131.816C123.942 148.668 124.582 187.296 151.416 203.268L210.407 238.378C265.962 271.443 335.125 271.589 390.819 238.757L450.875 203.354C477.912 187.416 478.553 148.536 452.057 131.715L395.822 96.0145C337.685 59.1064 263.419 59.2679 205.443 96.4285Z" fill="#EDE8FF"/>
<path fill-rule="evenodd" clip-rule="evenodd" d="M144.836 123.397L200.046 88.0095C261.298 48.7494 339.76 48.5787 401.182 87.5721L457.417 123.272C490.221 144.098 489.427 192.236 455.954 211.969L395.897 247.372C337.057 282.058 263.986 281.904 205.292 246.971L146.301 211.861C113.078 192.087 112.286 144.261 144.836 123.397ZM150.232 131.816L205.443 96.4285C263.419 59.2679 337.685 59.1064 395.822 96.0145L452.057 131.715C478.553 148.536 477.912 187.416 450.875 203.354L390.819 238.757C335.125 271.589 265.962 271.443 210.407 238.378L151.416 203.268C124.582 187.296 123.942 148.668 150.232 131.816Z" fill="#05060F"/>
</svg>
