<?xml version="1.0" ?><svg height="60px" version="1.1" viewBox="0 0 60 60" width="60px" xmlns="http://www.w3.org/2000/svg" xmlns:xlink="http://www.w3.org/1999/xlink"><title/><desc/><defs/><g fill="none" fill-rule="evenodd" id="Page-1" stroke="none" stroke-width="1"><g id="Icons" transform="translate(-960.000000, -459.000000)"><g id="18--Flare-Tool--(design,-graphic,-tool)" transform="translate(961.000000, 460.000000)"><path d="M29,0 C12.983,0 0,12.984 0,29 C0,35.362 2.055,41.242 5.528,46.024 C5.685,46.012 5.841,46 6,46 C9.313,46 12,48.687 12,52 C12,52.159 11.988,52.315 11.977,52.472 C16.758,55.946 22.638,58 29,58 C45.017,58 58,45.016 58,29 C58,12.984 45.017,0 29,0" fill="#3D83F3" id="Fill-626"/><path d="M29,0 C28.497,0 27.997,0.013 27.5,0.038 C42.819,0.819 55,13.487 55,29 C55,44.449 42.919,57.072 27.689,57.947 C28.126,57.967 28.559,58 29,58 C45.017,58 58,45.016 58,29 C58,12.984 45.017,0 29,0" fill="#315ED8" id="Fill-627"/><path d="M29,0 C29.503,0 30.003,0.013 30.5,0.039 C15.181,0.819 3,13.487 3,29 C3,44.449 15.081,57.072 30.311,57.947 C29.874,57.967 29.441,58 29,58 C12.983,58 0,45.016 0,29 C0,12.984 12.983,0 29,0" fill="#FFFFFF" id="Fill-628"/><path d="M12,52 C12,55.313 9.313,58 6,58 C2.687,58 0,55.313 0,52 C0,48.687 2.687,46 6,46 C9.313,46 12,48.687 12,52" fill="#3D83F3" id="Fill-629"/><path d="M3,52 C3,49.205 4.914,46.864 7.5,46.197 C7.02,46.073 6.519,46 6,46 C2.687,46 0,48.687 0,52 C0,55.313 2.687,58 6,58 C6.519,58 7.02,57.927 7.5,57.803 C4.914,57.136 3,54.795 3,52" fill="#FFFFFF" id="Fill-630"/><path d="M51,22 C51,30.284 44.284,37 36,37 C27.716,37 21,30.284 21,22 C21,13.716 27.716,7 36,7 C44.284,7 51,13.716 51,22" fill="#FFE100" id="Fill-631"/><path d="M36,7 C35.493,7 34.993,7.027 34.5,7.076 C42.08,7.829 48,14.222 48,22 C48,29.778 42.08,36.171 34.5,36.924 C34.993,36.973 35.493,37 36,37 C44.284,37 51,30.284 51,22 C51,13.716 44.284,7 36,7" fill="#FF9900" id="Fill-632"/><path d="M49.8457,8.8501 C50.7077,9.5581 51.7967,10.0001 52.9997,10.0001 C55.7617,10.0001 57.9997,7.7611 57.9997,5.0001 C57.9997,2.2391 55.7617,0.0001 52.9997,0.0001 C50.2387,0.0001 47.9997,2.2391 47.9997,5.0001 C47.9997,6.2031 48.4427,7.2911 49.1507,8.1541 C49.3857,8.3821 49.6167,8.6141 49.8457,8.8501" fill="#3D83F3" id="Fill-633"/><path d="M53,0 C52.474,0 51.977,0.104 51.5,0.254 C53.523,0.895 55,2.765 55,5 C55,7.236 53.522,9.107 51.497,9.747 C51.972,9.902 52.472,10 53,10 C55.762,10 58,7.761 58,5 C58,2.239 55.762,0 53,0" fill="#315ED8" id="Fill-634"/><path d="M12,52 C12,55.313 9.313,58 6,58 C2.687,58 0,55.313 0,52 C0,48.687 2.687,46 6,46 C9.313,46 12,48.687 12,52 Z" id="Stroke-987" stroke="#000000" stroke-linecap="round" stroke-linejoin="round" stroke-width="2"/><path d="M29,0 C12.983,0 0,12.984 0,29 C0,35.362 2.055,41.242 5.528,46.024 C5.685,46.012 5.841,46 6,46 C9.313,46 12,48.687 12,52 C12,52.159 11.988,52.315 11.977,52.472 C16.758,55.946 22.638,58 29,58 C45.017,58 58,45.016 58,29 C58,12.984 45.017,0 29,0 Z" id="Stroke-988" stroke="#000000" stroke-linecap="round" stroke-linejoin="round" stroke-width="2"/><path d="M51,22 C51,30.284 44.284,37 36,37 C27.716,37 21,30.284 21,22 C21,13.716 27.716,7 36,7 C44.284,7 51,13.716 51,22 Z" id="Stroke-989" stroke="#000000" stroke-linecap="round" stroke-linejoin="round" stroke-width="2"/><path d="M49.8457,8.8501 C50.7077,9.5581 51.7967,10.0001 52.9997,10.0001 C55.7617,10.0001 57.9997,7.7611 57.9997,5.0001 C57.9997,2.2391 55.7617,0.0001 52.9997,0.0001 C50.2387,0.0001 47.9997,2.2391 47.9997,5.0001 C47.9997,6.2031 48.4427,7.2911 49.1507,8.1541 C49.3857,8.3821 49.6167,8.6141 49.8457,8.8501 Z" id="Stroke-1004" stroke="#000000" stroke-linecap="round" stroke-linejoin="round" stroke-width="2"/></g></g></g></svg>