<?xml version="1.0" ?><svg height="60px" version="1.1" viewBox="0 0 60 60" width="60px" xmlns="http://www.w3.org/2000/svg" xmlns:xlink="http://www.w3.org/1999/xlink"><title/><desc/><defs/><g fill="none" fill-rule="evenodd" id="Page-1" stroke="none" stroke-width="1"><g fill-rule="nonzero" id="Leisure---Ultra---018---Puzzle-Pieces"><path d="M22,45 C21.9988391,46.8099989 23.214012,48.3949205 24.9622726,48.8636231 C26.7105333,49.3323257 28.5555748,48.5678369 29.46,47 L30,47 L30,59 L1,59 L1,30 L14,30 L14,29.46 C12.4321279,28.5547886 11.6677248,26.7093563 12.1362967,24.9606222 C12.6048686,23.2118881 14.1895773,21.9958984 16,21.9958984 C17.8104227,21.9958984 19.3951314,23.2118881 19.8637033,24.9606222 C20.3322752,26.7093563 19.5678721,28.5547886 18,29.46 L18,30 L30,30 L30,43 L29.46,43 C28.5555748,41.4321631 26.7105333,40.6676743 24.9622726,41.1363769 C23.214012,41.6050795 21.9988391,43.1900011 22,45 Z" fill="#C52828" id="Shape"/><path d="M38,15 C38.0011609,16.8099989 36.785988,18.3949205 35.0377274,18.8636231 C33.2894667,19.3323257 31.4444252,18.5678369 30.54,17 L30,17 L30,30 L18,30 L18,29.46 C19.5678721,28.5547886 20.3322752,26.7093563 19.8637033,24.9606222 C19.3951314,23.2118881 17.8104227,21.9958984 16,21.9958984 C14.1895773,21.9958984 12.6048686,23.2118881 12.1362967,24.9606222 C11.6677248,26.7093563 12.4321279,28.5547886 14,29.46 L14,30 L1,30 L1,1 L30,1 L30,13 L30.54,13 C31.4444252,11.4321631 33.2894667,10.6676743 35.0377274,11.1363769 C36.785988,11.6050795 38.0011609,13.1900011 38,15 Z" fill="#1566C0" id="Shape"/><path d="M59,30 L59,59 L46,59 L46,58.46 C47.5678721,57.5547886 48.3322752,55.7093563 47.8637033,53.9606222 C47.3951314,52.2118881 45.8104227,50.9958984 44,50.9958984 C42.1895773,50.9958984 40.6048686,52.2118881 40.1362967,53.9606222 C39.6677248,55.7093563 40.4321279,57.5547886 42,58.46 L42,59 L30,59 L30,47 L29.46,47 C28.5547886,48.5678721 26.7093563,49.3322752 24.9606222,48.8637033 C23.2118881,48.3951314 21.9958984,46.8104227 21.9958984,45 C21.9958984,43.1895773 23.2118881,41.6048686 24.9606222,41.1362967 C26.7093563,40.6677248 28.5547886,41.4321279 29.46,43 L30,43 L30,30 L42,30 L42,30.54 C40.4321279,31.4452114 39.6677248,33.2906437 40.1362967,35.0393778 C40.6048686,36.7881119 42.1895773,38.0041016 44,38.0041016 C45.8104227,38.0041016 47.3951314,36.7881119 47.8637033,35.0393778 C48.3322752,33.2906437 47.5678721,31.4452114 46,30.54 L46,30 L59,30 Z" fill="#558B30" id="Shape"/><path d="M51,15 C50.9988391,16.8099989 52.214012,18.3949205 53.9622726,18.8636231 C55.7105333,19.3323257 57.5555748,18.5678369 58.46,17 L59,17 L59,30 L46,30 L46,30.54 C47.5678721,31.4452114 48.3322752,33.2906437 47.8637033,35.0393778 C47.3951314,36.7881119 45.8104227,38.0041016 44,38.0041016 C42.1895773,38.0041016 40.6048686,36.7881119 40.1362967,35.0393778 C39.6677248,33.2906437 40.4321279,31.4452114 42,30.54 L42,30 L30,30 L30,17 L30.54,17 C31.4452114,18.5678721 33.2906437,19.3322752 35.0393778,18.8637033 C36.7881119,18.3951314 38.0041016,16.8104227 38.0041016,15 C38.0041016,13.1895773 36.7881119,11.6048686 35.0393778,11.1362967 C33.2906437,10.6677248 31.4452114,11.4321279 30.54,13 L30,13 L30,1 L59,1 L59,13 L58.46,13 C57.5555748,11.4321631 55.7105333,10.6676743 53.9622726,11.1363769 C52.214012,11.6050795 50.9988391,13.1900011 51,15 Z" fill="#FDD834" id="Shape"/><path d="M48,15 C47.9997108,16.0609546 48.4210453,17.0785383 49.1712535,17.8287465 C49.9214617,18.5789547 50.9390454,19.0002892 52,19 C52.5152842,19.0039417 53.0258691,18.9018247 53.5,18.7 C53.9741309,18.9018247 54.4847158,19.0039417 55,19 C55.337736,19.0030336 55.6742654,18.9592848 56,18.87 L56,30 L46,30 L46,30.54 C47.5678369,31.4444252 48.3323257,33.2894667 47.8636231,35.0377274 C47.3949205,36.785988 45.8099989,38.0011609 44,38 C43.4847158,38.0039417 42.9741309,37.9018247 42.5,37.7 C41.083069,37.1295082 40.1161404,35.800199 40.0097328,34.2764432 C39.9033253,32.7526874 40.6761124,31.3018897 42,30.54 L42,30 L30,30 L30,17 L30.54,17 C30.9818676,17.7723557 31.6729366,18.3717524 32.5,18.7 C32.9741309,18.9018247 33.4847158,19.0039417 34,19 C36.209139,19 38,17.209139 38,15 C38,12.790861 36.209139,11 34,11 C33.484713,10.9960284 32.974122,11.0981466 32.5,11.3 C31.6729245,11.6282277 30.9818496,12.2276295 30.54,13 L30,13 L30,1 L56,1 L56,11.13 C55.6742714,11.0406854 55.3377379,10.996936 55,11 C54.484713,10.9960284 53.974122,11.0981466 53.5,11.3 C53.025878,11.0981466 52.515287,10.9960284 52,11 C50.9390421,10.9997002 49.9214523,11.4210312 49.1712417,12.1712417 C48.4210312,12.9214523 47.9997002,13.9390421 48,15 Z" fill="#FFEB3A" id="Shape"/><path d="M44,39 C42.105665,39.0011126 40.3735711,37.9309719 39.5268951,36.2363786 C38.6802191,34.5417854 38.8645513,32.5141335 40.00293,31 L30,31 C29.7347624,31.000069 29.4803684,30.8947343 29.292817,30.707183 C29.1052657,30.5196316 28.999931,30.2652376 29,30 L29,17 C28.999931,16.7347624 29.1052657,16.4803684 29.292817,16.292817 C29.4803684,16.1052657 29.7347624,15.999931 30,16 L30.54,16 C30.897885,16.0002501 31.228453,16.1914039 31.40719,16.50146 C32.0866042,17.6767087 33.4705464,18.2492707 34.7816941,17.8975534 C36.0928417,17.5458362 37.0044198,16.3574976 37.0044198,14.999995 C37.0044198,13.6424924 36.0928417,12.4541538 34.7816941,12.1024366 C33.4705464,11.7507193 32.0866042,12.3232813 31.40719,13.49853 C31.2284555,13.80859 30.8978871,13.9997478 30.54,14 L30,14 C29.7347624,14.000069 29.4803684,13.8947343 29.292817,13.707183 C29.1052657,13.5196316 28.999931,13.2652376 29,13 L29,1 C28.999931,0.734762367 29.1052657,0.480368368 29.292817,0.292817033 C29.4803684,0.105265697 29.7347624,-6.89886937e-05 30,1.33229649e-15 L59,1.33229649e-15 C59.2652376,-6.89886937e-05 59.5196316,0.105265697 59.707183,0.292817033 C59.8947343,0.480368368 60.000069,0.734762367 60,1 L60,13 C60.000069,13.2652376 59.8947343,13.5196316 59.707183,13.707183 C59.5196316,13.8947343 59.2652376,14.000069 59,14 L58.46,14 C58.102115,13.9997499 57.771547,13.8085961 57.59281,13.49854 C56.9133958,12.3232913 55.5294536,11.7507293 54.2183059,12.1024466 C52.9071583,12.4541638 51.9955802,13.6425024 51.9955802,15.000005 C51.9955802,16.3575076 52.9071583,17.5458462 54.2183059,17.8975634 C55.5294536,18.2492807 56.9133958,17.6767187 57.59281,16.50147 C57.7715445,16.19141 58.1021129,16.0002522 58.46,16 L59,16 C59.2652376,15.999931 59.5196316,16.1052657 59.707183,16.292817 C59.8947343,16.4803684 60.000069,16.7347624 60,17 L60,30 C60.000069,30.2652376 59.8947343,30.5196316 59.707183,30.707183 C59.5196316,30.8947343 59.2652376,31.000069 59,31 L47.99707,31 C49.1354487,32.5141335 49.3197809,34.5417854 48.4731049,36.2363786 C47.6264289,37.9309719 45.894335,39.0011126 44,39 Z M31,29 L42,29 C42.2652376,28.999931 42.5196316,29.1052657 42.707183,29.292817 C42.8947343,29.4803684 43.000069,29.7347624 43,30 L43,30.54 C42.9998783,30.8980609 42.8084393,31.2287661 42.498,31.40719 C41.3229706,32.0867733 40.7506562,33.4706712 41.1024699,34.7816841 C41.4542836,36.092697 42.6425576,37.0041365 43.999955,37.0041365 C45.3573524,37.0041365 46.5456264,36.092697 46.8974401,34.7816841 C47.2492538,33.4706712 46.6769394,32.0867733 45.50191,31.40719 C45.1915054,31.2287432 45.0001032,30.8980423 45,30.54 L45,30 C44.999931,29.7347624 45.1052657,29.4803684 45.292817,29.292817 C45.4803684,29.1052657 45.7347624,28.999931 46,29 L58,29 L58,18.99658 C55.9378264,20.5468838 53.0346892,20.273655 51.2979784,18.3658191 C49.5612677,16.4579832 49.5612677,13.5420168 51.2979784,11.6341809 C53.0346892,9.72634501 55.9378264,9.45311618 58,11.00342 L58,2 L31,2 L31,11.00342 C33.0621736,9.45311618 35.9653108,9.72634501 37.7020216,11.6341809 C39.4387323,13.5420168 39.4387323,16.4579832 37.7020216,18.3658191 C35.9653108,20.273655 33.0621736,20.5468838 31,18.99658 L31,29 Z" fill="#000000" id="Shape"/><path d="M56,30 L56,59 L46,59 L46,58.46 C47.5678867,57.5556048 48.3324162,55.7105382 47.8637063,53.9622503 C47.3949964,52.2139625 45.810027,50.9987883 44,51 C43.484713,50.9960284 42.974122,51.0981466 42.5,51.3 C41.0830376,51.8704619 40.1160774,53.1997786 40.0096686,54.7235523 C39.9032598,56.247326 40.6760772,57.6981355 42,58.46 L42,59 L30,59 L30,47 L29.46,47 C28.9282797,47.9318077 28.0400994,48.6069691 27,48.87 C26.6742654,48.9592848 26.337736,49.0030336 26,49 C25.4847158,49.0039417 24.9741309,48.9018247 24.5,48.7 C22.9895658,48.0925605 22,46.6280031 22,45 C22,43.3719969 22.9895658,41.9074395 24.5,41.3 C24.974122,41.0981466 25.484713,40.9960284 26,41 C26.3377379,40.996936 26.6742714,41.0406854 27,41.13 C28.0401102,41.3930086 28.9282983,42.068176 29.46,43 L30,43 L30,30 L42,30 L42,30.54 C40.6761124,31.3018897 39.9033253,32.7526874 40.0097328,34.2764432 C40.1161404,35.800199 41.083069,37.1295082 42.5,37.7 C42.9741309,37.9018247 43.4847158,38.0039417 44,38 C45.8099989,38.0011609 47.3949205,36.785988 47.8636231,35.0377274 C48.3323257,33.2894667 47.5678369,31.4444252 46,30.54 L46,30 L56,30 Z" fill="#8BC34A" id="Shape"/><path d="M59,60 L46,60 C45.7347624,60.000069 45.4803684,59.8947343 45.292817,59.707183 C45.1052657,59.5196316 44.999931,59.2652376 45,59 L45,58.46 C45.0001217,58.1019391 45.1915607,57.7712339 45.502,57.59281 C46.6770294,56.9132267 47.2493438,55.5293288 46.8975301,54.2183159 C46.5457164,52.907303 45.3574424,51.9958635 44.000045,51.9958635 C42.6426476,51.9958635 41.4543736,52.907303 41.1025599,54.2183159 C40.7507462,55.5293288 41.3230606,56.9132267 42.49809,57.59281 C42.8084946,57.7712568 42.9998968,58.1019577 43,58.46 L43,59 C43.000069,59.2652376 42.8947343,59.5196316 42.707183,59.707183 C42.5196316,59.8947343 42.2652376,60.000069 42,60 L30,60 C29.7347624,60.000069 29.4803684,59.8947343 29.292817,59.707183 C29.1052657,59.5196316 28.999931,59.2652376 29,59 L29,48.99658 C26.9378264,50.5468838 24.0346892,50.273655 22.2979784,48.3658191 C20.5612677,46.4579832 20.5612677,43.5420168 22.2979784,41.6341809 C24.0346892,39.726345 26.9378264,39.4531162 29,41.00342 L29,30 C28.999931,29.7347624 29.1052657,29.4803684 29.292817,29.292817 C29.4803684,29.1052657 29.7347624,28.999931 30,29 L42,29 C42.2652376,28.999931 42.5196316,29.1052657 42.707183,29.292817 C42.8947343,29.4803684 43.000069,29.7347624 43,30 L43,30.54 C42.9998783,30.8980609 42.8084393,31.2287661 42.498,31.40719 C41.3229706,32.0867733 40.7506562,33.4706712 41.1024699,34.7816841 C41.4542836,36.092697 42.6425576,37.0041365 43.999955,37.0041365 C45.3573524,37.0041365 46.5456264,36.092697 46.8974401,34.7816841 C47.2492538,33.4706712 46.6769394,32.0867733 45.50191,31.40719 C45.1915054,31.2287432 45.0001032,30.8980423 45,30.54 L45,30 C44.999931,29.7347624 45.1052657,29.4803684 45.292817,29.292817 C45.4803684,29.1052657 45.7347624,28.999931 46,29 L59,29 C59.2652376,28.999931 59.5196316,29.1052657 59.707183,29.292817 C59.8947343,29.4803684 60.000069,29.7347624 60,30 L60,59 C60.000069,59.2652376 59.8947343,59.5196316 59.707183,59.707183 C59.5196316,59.8947343 59.2652376,60.000069 59,60 L59,60 Z M47.99707,58 L58,58 L58,31 L47.99707,31 C49.5469123,33.0622599 49.2733943,35.9650859 47.365618,37.7015526 C45.4578418,39.4380194 42.5421582,39.4380194 40.634382,37.7015526 C38.7266057,35.9650859 38.4530877,33.0622599 40.00293,31 L31,31 L31,43 C31.000069,43.2652376 30.8947343,43.5196316 30.707183,43.707183 C30.5196316,43.8947343 30.2652376,44.000069 30,44 L29.46,44 C29.102115,43.9997499 28.771547,43.8085961 28.59281,43.49854 C27.9133958,42.3232913 26.5294536,41.7507293 25.2183059,42.1024466 C23.9071583,42.4541638 22.9955802,43.6425024 22.9955802,45.000005 C22.9955802,46.3575076 23.9071583,47.5458462 25.2183059,47.8975634 C26.5294536,48.2492807 27.9133958,47.6767187 28.59281,46.50147 C28.7715445,46.19141 29.1021129,46.0002522 29.46,46 L30,46 C30.2652376,45.999931 30.5196316,46.1052657 30.707183,46.292817 C30.8947343,46.4803684 31.000069,46.7347624 31,47 L31,58 L40.00293,58 C38.4530877,55.9377401 38.7266057,53.0349141 40.634382,51.2984474 C42.5421582,49.5619806 45.4578418,49.5619806 47.365618,51.2984474 C49.2733943,53.0349141 49.5469123,55.9377401 47.99707,58 L47.99707,58 Z" fill="#000000" id="Shape"/><path d="M22,45 C21.9971873,46.6288629 22.9877186,48.0948493 24.5,48.7 C24.9741309,48.9018247 25.4847158,49.0039417 26,49 C26.337736,49.0030336 26.6742654,48.9592848 27,48.87 L27,59 L1,59 L1,30 L14,30 L14,29.46 C12.6760772,28.6981355 11.9032598,27.247326 12.0096686,25.7235523 C12.1160774,24.1997786 13.0830376,22.8704619 14.5,22.3 C14.974122,22.0981466 15.484713,21.9960284 16,22 C17.810027,21.9987883 19.3949964,23.2139625 19.8637063,24.9622503 C20.3324162,26.7105382 19.5678867,28.5556048 18,29.46 L18,30 L27,30 L27,41.13 C26.6742714,41.0406854 26.3377379,40.996936 26,41 C25.484713,40.9960284 24.974122,41.0981466 24.5,41.3 C22.9877186,41.9051507 21.9971873,43.3711371 22,45 Z" fill="#F44335" id="Shape"/><path d="M30,60 L1,60 C0.734762367,60.000069 0.480368368,59.8947343 0.292817033,59.707183 C0.105265697,59.5196316 -6.89886937e-05,59.2652376 -4.44060345e-16,59 L-4.44060345e-16,30 C-6.89886937e-05,29.7347624 0.105265697,29.4803684 0.292817033,29.292817 C0.480368368,29.1052657 0.734762367,28.999931 1,29 L12.00293,29 C10.4530877,26.9377401 10.7266057,24.0349141 12.634382,22.2984474 C14.5421582,20.5619806 17.4578418,20.5619806 19.365618,22.2984474 C21.2733943,24.0349141 21.5469123,26.9377401 19.99707,29 L30,29 C30.2652376,28.999931 30.5196316,29.1052657 30.707183,29.292817 C30.8947343,29.4803684 31.000069,29.7347624 31,30 L31,43 C31.000069,43.2652376 30.8947343,43.5196316 30.707183,43.707183 C30.5196316,43.8947343 30.2652376,44.000069 30,44 L29.46,44 C29.102115,43.9997499 28.771547,43.8085961 28.59281,43.49854 C27.9133958,42.3232913 26.5294536,41.7507293 25.2183059,42.1024466 C23.9071583,42.4541638 22.9955802,43.6425024 22.9955802,45.000005 C22.9955802,46.3575076 23.9071583,47.5458462 25.2183059,47.8975634 C26.5294536,48.2492807 27.9133958,47.6767187 28.59281,46.50147 C28.7715445,46.19141 29.1021129,46.0002522 29.46,46 L30,46 C30.2652376,45.999931 30.5196316,46.1052657 30.707183,46.292817 C30.8947343,46.4803684 31.000069,46.7347624 31,47 L31,59 C31.000069,59.2652376 30.8947343,59.5196316 30.707183,59.707183 C30.5196316,59.8947343 30.2652376,60.000069 30,60 L30,60 Z M2,58 L29,58 L29,48.99658 C26.9378264,50.5468838 24.0346892,50.273655 22.2979784,48.3658191 C20.5612677,46.4579832 20.5612677,43.5420168 22.2979784,41.6341809 C24.0346892,39.726345 26.9378264,39.4531162 29,41.00342 L29,31 L18,31 C17.7347624,31.000069 17.4803684,30.8947343 17.292817,30.707183 C17.1052657,30.5196316 16.999931,30.2652376 17,30 L17,29.46 C17.0001217,29.1019391 17.1915607,28.7712339 17.502,28.59281 C18.6770294,27.9132267 19.2493438,26.5293288 18.8975301,25.2183159 C18.5457164,23.907303 17.3574424,22.9958635 16.000045,22.9958635 C14.6426476,22.9958635 13.4543736,23.907303 13.1025599,25.2183159 C12.7507462,26.5293288 13.3230606,27.9132267 14.49809,28.59281 C14.8084946,28.7712568 14.9998968,29.1019577 15,29.46 L15,30 C15.000069,30.2652376 14.8947343,30.5196316 14.707183,30.707183 C14.5196316,30.8947343 14.2652376,31.000069 14,31 L2,31 L2,58 Z" fill="#000000" id="Shape"/><path d="M35,15 C35.0028127,16.6288629 34.0122814,18.0948493 32.5,18.7 C31.6729366,18.3717524 30.9818676,17.7723557 30.54,17 L30,17 L30,18.87 C28.9599006,18.6069691 28.0717203,17.9318077 27.54,17 L27,17 L27,30 L18,30 L18,29.46 C19.5678867,28.5556048 20.3324162,26.7105382 19.8637063,24.9622503 C19.3949964,23.2139625 17.810027,21.9987883 16,22 C15.484713,21.9960284 14.974122,22.0981466 14.5,22.3 C13.0830376,22.8704619 12.1160774,24.1997786 12.0096686,25.7235523 C11.9032598,27.247326 12.6760772,28.6981355 14,29.46 L14,30 L1,30 L1,1 L27,1 L27,13 L27.54,13 C28.0717017,12.068176 28.9598898,11.3930086 30,11.13 L30,13 L30.54,13 C30.9818496,12.2276295 31.6729245,11.6282277 32.5,11.3 C34.0122814,11.9051507 35.0028127,13.3711371 35,15 L35,15 Z" fill="#2296F3" id="Shape"/><path d="M30.54,13 L30,13 L30,11.13 C30.3257286,11.0406854 30.6622621,10.996936 31,11 C31.515287,10.9960284 32.025878,11.0981466 32.5,11.3 C31.6729245,11.6282277 30.9818496,12.2276295 30.54,13 L30.54,13 Z" fill="#E91E63" id="Shape"/><path d="M32.5,18.7 C32.0258691,18.9018247 31.5152842,19.0039417 31,19 C30.662264,19.0030336 30.3257346,18.9592848 30,18.87 L30,17 L30.54,17 C30.9818676,17.7723557 31.6729366,18.3717524 32.5,18.7 L32.5,18.7 Z" fill="#E91E63" id="Shape"/><path d="M30,31 L18,31 C17.7347624,31.000069 17.4803684,30.8947343 17.292817,30.707183 C17.1052657,30.5196316 16.999931,30.2652376 17,30 L17,29.46 C17.0001217,29.1019391 17.1915607,28.7712339 17.502,28.59281 C18.6770294,27.9132267 19.2493438,26.5293288 18.8975301,25.2183159 C18.5457164,23.907303 17.3574424,22.9958635 16.000045,22.9958635 C14.6426476,22.9958635 13.4543736,23.907303 13.1025599,25.2183159 C12.7507462,26.5293288 13.3230606,27.9132267 14.49809,28.59281 C14.8084946,28.7712568 14.9998968,29.1019577 15,29.46 L15,30 C15.000069,30.2652376 14.8947343,30.5196316 14.707183,30.707183 C14.5196316,30.8947343 14.2652376,31.000069 14,31 L1,31 C0.734762367,31.000069 0.480368368,30.8947343 0.292817033,30.707183 C0.105265697,30.5196316 -6.89886937e-05,30.2652376 1.33229649e-15,30 L1.33229649e-15,1 C-6.89886937e-05,0.734762367 0.105265697,0.480368368 0.292817033,0.292817033 C0.480368368,0.105265697 0.734762367,-6.89886937e-05 1,-4.44060345e-16 L30,-4.44060345e-16 C30.2652376,-6.89886937e-05 30.5196316,0.105265697 30.707183,0.292817033 C30.8947343,0.480368368 31.000069,0.734762367 31,1 L31,11.00342 C33.0621736,9.45311618 35.9653108,9.72634501 37.7020216,11.6341809 C39.4387323,13.5420168 39.4387323,16.4579832 37.7020216,18.3658191 C35.9653108,20.273655 33.0621736,20.5468838 31,18.99658 L31,30 C31.000069,30.2652376 30.8947343,30.5196316 30.707183,30.707183 C30.5196316,30.8947343 30.2652376,31.000069 30,31 Z M19.99707,29 L29,29 L29,17 C28.999931,16.7347624 29.1052657,16.4803684 29.292817,16.292817 C29.4803684,16.1052657 29.7347624,15.999931 30,16 L30.54,16 C30.897885,16.0002501 31.228453,16.1914039 31.40719,16.50146 C32.0866042,17.6767087 33.4705464,18.2492707 34.7816941,17.8975534 C36.0928417,17.5458362 37.0044198,16.3574976 37.0044198,14.999995 C37.0044198,13.6424924 36.0928417,12.4541538 34.7816941,12.1024366 C33.4705464,11.7507193 32.0866042,12.3232813 31.40719,13.49853 C31.2284555,13.80859 30.8978871,13.9997478 30.54,14 L30,14 C29.7347624,14.000069 29.4803684,13.8947343 29.292817,13.707183 C29.1052657,13.5196316 28.999931,13.2652376 29,13 L29,2 L2,2 L2,29 L12.00293,29 C10.4530877,26.9377401 10.7266057,24.0349141 12.634382,22.2984474 C14.5421582,20.5619806 17.4578418,20.5619806 19.365618,22.2984474 C21.2733943,24.0349141 21.5469123,26.9377401 19.99707,29 Z" fill="#000000" id="Shape"/></g></g></svg>