<?xml version="1.0" encoding="UTF-8"?><svg id="Layer_2" xmlns="http://www.w3.org/2000/svg" viewBox="0 0 96 96"><g id="Layer_6"><path d="M22,89.77v-32h10.46c.37,0,.71.17.94.45.23.29.31.66.23,1.02-.2.85-.15,1.7.15,2.53.56,1.55,1.94,2.7,3.52,2.95.24.04.48.05.72.05,2.48,0,4.5-2.02,4.5-4.5,0-.34-.04-.68-.12-1.03-.09-.36,0-.73.23-1.02.23-.29.57-.45.94-.45h10.46v32H22Z" style="fill:#ffe205; stroke-width:0px;"/><path d="M43.54,58.77h9.46v30h-30v-30h9.46c.13,0,.22.12.19.24-.23.95-.22,2,.18,3.09.67,1.87,2.34,3.3,4.31,3.6.29.04.58.07.87.07,3.04,0,5.5-2.46,5.5-5.5,0-.43-.05-.85-.15-1.26-.03-.13.06-.24.19-.24M43.54,56.77c-.68,0-1.3.3-1.72.83-.42.53-.57,1.21-.41,1.87.06.27.1.53.1.8,0,1.93-1.57,3.5-3.5,3.5-.19,0-.38-.01-.57-.04-1.22-.19-2.29-1.09-2.73-2.3-.23-.65-.27-1.29-.11-1.96.16-.66,0-1.34-.41-1.87-.42-.53-1.05-.83-1.72-.83h-11.46v34h32s2,0,2,0v-34h-11.46Z" style="fill:#000; stroke-width:0px;"/><path d="M42.61,40.42c-1.03-1.49-2.65-2.19-4.24-2.13-.18,0-.29-.2-.16-.34l7.99-7.99-6.59-6.59c-.09-.09-.23-.07-.3.04-.51.82-1.24,1.54-2.28,2.03-1.77.84-3.92.67-5.5-.49-2.75-2.02-2.96-5.9-.65-8.22.3-.3.63-.56.98-.77.11-.07.13-.21.04-.3l-6.59-6.59L4.42,29.97l20.89,20.89,7.99-7.99c.13-.13.34-.03.33.16-.05,1.32.42,2.65,1.42,3.66,2.17,2.17,5.85,1.89,7.63-.82,1.07-1.64,1.03-3.83-.08-5.44Z" style="fill:#ffa2e2; stroke-width:0px;"/><path d="M91.03,70.59c-1.77-.32-3.38.32-4.45,1.48-.12.13-.34.06-.34-.12v-11.18s-9.22,0-9.22,0c-.13,0-.21.11-.18.24.22.93.21,1.95-.17,3.01-.66,1.83-2.28,3.21-4.2,3.5-3.33.51-6.2-2.06-6.2-5.29,0-.42.05-.83.15-1.22.03-.12-.06-.24-.18-.24h-9.22v29.23s29.23,0,29.23,0v-11.18c0-.18.22-.26.34-.12.89.96,2.15,1.56,3.55,1.56,3.03,0,5.42-2.77,4.76-5.92-.39-1.89-1.96-3.4-3.86-3.75Z" style="fill:#ffa2e2; stroke-width:0px;"/><path d="M24.21,7.34l6.69,6.69c.09.09.07.24-.04.31-.35.22-.69.48-.99.78-2.35,2.35-2.13,6.29.66,8.34.94.69,2.07,1.03,3.21,1.03.81,0,1.63-.18,2.38-.53,1.05-.5,1.8-1.23,2.31-2.06.04-.06.1-.1.17-.1.05,0,.1.02.14.06l6.69,6.69-8.11,8.11c-.13.13-.03.34.15.34,0,0,0,0,0,0,.06,0,.13,0,.19,0,1.55,0,3.11.71,4.11,2.16,1.13,1.63,1.17,3.86.08,5.52-1.01,1.53-2.61,2.3-4.21,2.3-1.28,0-2.56-.49-3.54-1.46-1.02-1.02-1.5-2.37-1.45-3.71,0-.13-.1-.22-.2-.22-.05,0-.1.02-.14.06l-8.11,8.11L3,28.56,24.21,7.34M24.21,4.51l-1.41,1.41L1.59,27.14l-1.41,1.41,1.41,1.41,21.21,21.21,1.41,1.41,1.41-1.41,5.87-5.87c.32.59.72,1.14,1.2,1.62,1.32,1.32,3.08,2.05,4.95,2.05,2.37,0,4.57-1.2,5.89-3.2,1.53-2.33,1.49-5.45-.11-7.76-.65-.94-1.49-1.68-2.44-2.2l5.86-5.86,1.41-1.41-1.41-1.41-6.69-6.69c-.41-.41-.97-.64-1.55-.64-.77,0-1.47.39-1.87,1.05-.36.58-.84,1.01-1.46,1.3-.47.22-1,.34-1.53.34-.74,0-1.46-.23-2.02-.64-.85-.63-1.37-1.54-1.45-2.58-.08-1.02.29-2.02,1.02-2.74.18-.18.4-.35.63-.49.58-.36.95-.95,1.03-1.62.08-.67-.15-1.33-.63-1.81l-6.69-6.69-1.41-1.41h0Z" style="fill:#000; stroke-width:0px;"/><path d="M85,58.77v11.47c0,.12.1.2.2.2.05,0,.11-.02.16-.07.91-.98,2.2-1.6,3.65-1.6.3,0,.61.03.92.08,1.95.35,3.56,1.9,3.96,3.84.67,3.23-1.78,6.07-4.89,6.07-1.44,0-2.74-.62-3.65-1.6-.04-.05-.1-.07-.16-.07-.1,0-.2.08-.2.2v11.48h-30v-30h30M87,56.77h-34v34h34v-10.3c.64.2,1.32.3,2,.3,2.12,0,4.1-.94,5.43-2.58,1.34-1.64,1.85-3.79,1.42-5.89-.57-2.73-2.8-4.91-5.57-5.41-.42-.08-.86-.12-1.28-.12-.68,0-1.36.1-2,.3v-10.3h0Z" style="fill:#000; stroke-width:0px;"/><path d="M70,66.77c-3.31,0-6-2.69-6-6,0-1.06.29-2.09.82-3h-10.82V25.77h32v11.65l-1.05.05h-.14l-.15-.04c-.38-.1-.78-.16-1.17-.16-1.31,0-2.56.57-3.42,1.57-.87,1.01-1.23,2.31-1.03,3.65.24,1.58,1.4,2.96,2.95,3.52.49.18,1,.27,1.5.27.34,0,.68-.04,1.03-.12l.11-.03h.17c.66,0,1.19.53,1.19,1.19v10.46h-10.81c.71,1.22.98,2.66.71,4.1-.43,2.37-2.29,4.28-4.62,4.77-.42.09-.85.13-1.28.13h0Z" style="fill:#ffe205; stroke-width:0px;"/><path d="M85,26.77v9.65s-.02.05-.05.05c0,0,0,0-.01,0-.46-.12-.94-.2-1.44-.2-3.32,0-5.96,2.95-5.43,6.37.3,1.97,1.72,3.63,3.6,4.31.63.23,1.25.33,1.84.33.43,0,.85-.05,1.26-.15.02,0,.03,0,.05,0,.11,0,.19.08.19.19v9.46h-11.48c-.18,0-.27.22-.14.34,1.2,1.1,1.86,2.76,1.53,4.58-.35,1.95-1.9,3.56-3.84,3.96-.36.08-.72.11-1.07.11-2.76,0-5-2.24-5-5,0-1.45.63-2.75,1.62-3.66.13-.12.04-.34-.14-.34h-11.48v-30h30M87,24.77h-34v34h10.3c-.2.64-.3,1.32-.3,2,0,3.86,3.14,7,7,7,.49,0,.99-.05,1.48-.15,2.73-.57,4.91-2.8,5.41-5.57.2-1.12.13-2.24-.18-3.28h10.3v-11.46c0-1.21-.98-2.19-2.19-2.19h-.23l-.28.06c-.27.06-.53.1-.8.1-.39,0-.78-.07-1.16-.21-1.21-.43-2.11-1.5-2.3-2.73-.16-1.05.12-2.06.8-2.84.67-.78,1.64-1.22,2.66-1.22.3,0,.61.04.91.13l.26.07h.28c1.13,0,2.05-.92,2.05-2.05v-11.65h0Z" style="fill:#000; stroke-width:0px;"/><rect width="96" height="96" style="fill:none; stroke-width:0px;"/></g></svg>