<?xml version="1.0" encoding="UTF-8"?><svg id="Layer_2" xmlns="http://www.w3.org/2000/svg" viewBox="0 0 96 96"><g id="Layer_7"><rect width="96" height="96" style="fill:none; stroke-width:0px;"/><path d="M38.47,59c1.22.91,2.03,2.36,2.03,4,0,2.76-2.24,5-5,5s-5-2.24-5-5c0-1.64.8-3.09,2.03-4h-13.53v33h33v-33h-13.53Z" style="fill:#ffe205; stroke:#262626; stroke-linecap:round; stroke-linejoin:round; stroke-width:2px;"/><path d="M86.51,79.83c1.47.86,3.42.99,5.38-.15,2.32-2.25,2.39-4.22,1.8-5.86-.53-.19-1.09-.31-1.69-.31-.91,0-1.76.25-2.5.68-.67.39-1.5-.14-1.5-.91v-2.66c-.52.11-1.02.3-1.47.56-.68.39-1.53-.05-1.53-.84v-8.33s-8.32,0-8.32,0c-.76,0-1.26.83-.87,1.48.99,1.67,1.33,4.23-.66,6.2-3.13,3.11-7.27.96-8.33-1.99-1.93-.69-3.31-2.52-3.31-4.69,0-.34.04-.68.11-1h-7.61c-.55,0-1,.45-1,1v7.61c.32-.07.66-.11,1-.11,2.17,0,3.99,1.39,4.69,3.31,2.96,1.07,5.1,5.2,1.99,8.33-1.98,1.99-4.53,1.66-6.2.66-.65-.39-1.48.11-1.48.87v8.32h30v-11.36c0-.77.84-1.21,1.51-.81Z" style="fill:#ffa2e2; stroke-width:0px;"/><path d="M89.92,70.58c-1.82-.33-3.48.34-4.58,1.53-.12.13-.34.04-.34-.14v-12.98s-13.53,0-13.53,0c1.45,1.08,2.31,2.91,1.94,4.92s-1.9,3.56-3.84,3.96c-3.23.67-6.07-1.78-6.07-4.89,0-1.64.8-3.09,2.03-4h-13.53v13.53c1.08-1.45,2.91-2.31,4.92-1.94s3.56,1.9,3.96,3.84c.67,3.23-1.78,6.07-4.89,6.07-1.64,0-3.09-.8-4-2.03v13.53h33v-12.98c0-.18.22-.27.34-.14.91.99,2.21,1.62,3.66,1.62,3.11,0,5.56-2.84,4.89-6.07-.4-1.94-2.01-3.49-3.96-3.84Z" style="fill:none; stroke:#262626; stroke-linejoin:round; stroke-width:2px;"/><path d="M73.5,63c0-1.64-.8-3.09-2.03-4h13.53v-13.53c-.91,1.22-2.36,2.03-4,2.03-2.76,0-5-2.24-5-5s2.24-5,5-5c1.64,0,3.09.8,4,2.03v-13.53h-33v33h13.53c-1.22.91-2.03,2.36-2.03,4,0,2.76,2.24,5,5,5s5-2.24,5-5Z" style="fill:#ffe205; stroke:#262626; stroke-linecap:round; stroke-linejoin:round; stroke-width:2px;"/><path d="M36.5,42.74c1.04-1.04,1.04,1.79.49,3.01,1.89.99,4.26.72,5.85-.87s1.86-3.96.87-5.85c-.94-.48-2.55.43-3.01-.49-.22-.43,1.36-1.36,1.36-1.36-1.04-.69-2.28-.94-3.48-.77l9.57-9.57-7.44-7.44c.22,1.51-.23,3.1-1.39,4.26-1.95,1.95-5.12,1.95-7.07,0-.37-.37-.65-.8-.88-1.24-.44-.23-.87-.51-1.24-.88-1.95-1.95-1.95-5.12,0-7.07,1.16-1.16,2.75-1.62,4.26-1.39l-7.44-7.44L3.6,28.97l21.21,21.21,9.57-9.57c-.17,1.19.08,2.43.77,3.48l1.36-1.36" style="fill:#ffa2e2; stroke-width:0px;"/><path d="M42.85,37.81c-1.16-1.16-2.75-1.62-4.26-1.39l9.57-9.57-9.57-9.57c.22,1.51-.23,3.1-1.39,4.26-1.95,1.95-5.12,1.95-7.07,0s-1.95-5.12,0-7.07c1.16-1.16,2.75-1.62,4.26-1.39L24.82,3.51,1.48,26.85l23.33,23.33,9.57-9.57c-.22,1.51.23,3.1,1.39,4.26,1.95,1.95,5.12,1.95,7.07,0s1.95-5.12,0-7.07Z" style="fill:none; stroke:#262626; stroke-linecap:round; stroke-linejoin:round; stroke-width:2px;"/></g></svg>