<?xml version="1.0" encoding="UTF-8"?><svg id="Layer_2" xmlns="http://www.w3.org/2000/svg" viewBox="0 0 61.01 61"><path id="Shape" d="M22.26,47.44c.25.7.73,1.33,1.34,1.77,2.06,1.48,4.71.77,5.86-1.21h.54v12H5c-2.21,0-4-1.79-4-4v-25h13v-.54c-1.97-1.14-2.67-3.76-1.25-5.81.4-.57.96-1.03,1.6-1.3,2.41-1.02,4.91.36,5.51,2.62.47,1.75-.3,3.59-1.86,4.5v.54h12v13h-.54c-.9-1.57-2.75-2.33-4.5-1.86-2.21.59-3.55,2.95-2.7,5.3Z" fill="#fa85dc" stroke-width="0"/><path d="M16,23c1,0,1.95.37,2.69,1.04,1.53,1.4,1.75,3.7.5,5.36l-1.2,1.6h12v13h-.54c-.71-1.23-2.04-2-3.46-2-.35,0-.7.05-1.03.14-1.74.47-2.96,2.06-2.96,3.87s1.22,3.4,2.96,3.87c.34.09.69.14,1.03.14,1.43,0,2.76-.77,3.46-2h.54v12H4c-1.65,0-3-1.35-3-3v-26h11s2,0,2,0l-1.2-1.6c-1.25-1.66-1.03-3.97.5-5.36.74-.67,1.7-1.04,2.69-1.04M16,22c-1.21,0-2.41.44-3.37,1.31-1.91,1.73-2.18,4.64-.63,6.7H0s0,27,0,27c0,2.21,1.79,4,4,4h26-.01c.27,0,.52-.1.71-.29.18-.19.29-.44.29-.71v-12c0-.27-.1-.52-.29-.71-.19-.18-.44-.29-.71-.29h-.54c-.36,0-.69.19-.87.5-.54.95-1.54,1.5-2.59,1.5-.26,0-.52-.03-.78-.1-1.31-.35-2.22-1.54-2.22-2.9s.91-2.55,2.22-2.9c.26-.07.52-.1.78-.1,1.05,0,2.05.55,2.59,1.5.18.31.51.5.87.5h.54c.27,0,.52-.1.71-.29.18-.19.29-.44.29-.71v-13c0-.27-.1-.52-.29-.71-.19-.18-.44-.29-.71-.29h-10c1.55-2.06,1.28-4.96-.63-6.7-.95-.87-2.16-1.31-3.36-1.31h0Z" fill="#121212" stroke-width="0"/><path id="Shape-2" d="M37.74,16.44c-.25.7-.73,1.33-1.34,1.77-2.06,1.48-4.71.77-5.86-1.21h-.54v13h-12v-.54c1.97-1.14,2.67-3.76,1.25-5.81-.4-.57-.96-1.03-1.6-1.3-2.41-1.02-4.91.36-5.51,2.62-.47,1.75.3,3.59,1.86,4.5v.54H1V6C1,3.24,3.24,1,6,1h24v12h.54c.9-1.57,2.75-2.33,4.5-1.86,2.21.59,3.55,2.95,2.7,5.3Z" fill="#1566c0" stroke-width="0"/><path id="Shape-8" d="M22,46c0,1.63.99,3.09,2.5,3.7.47.2.98.3,1.5.3.34,0,.67-.04,1-.13v10.13H3.96c-1.64,0-2.96-1.33-2.96-2.96v-26.04h13v-.54c-1.32-.76-2.1-2.21-1.99-3.74.11-1.52,1.07-2.85,2.49-3.42,1.11-.47,2.45-.39,3.61.26.25.14.48.32.68.53,2,2.12,1.35,5.12-.79,6.37v.54h9v11.13c-.33-.09-.66-.13-1-.13-.52,0-1.03.1-1.5.3-1.51.61-2.5,2.07-2.5,3.7Z" fill="#ffa4e6" stroke-width="0"/><path id="Shape-10" d="M35,15c0,1.63-.99,3.09-2.5,3.7-.57-.23-1.96-1.7-1.96-1.7h-.54v1.87c-1.04-.26-1.93-.94-2.46-1.87h-.54v13h-9v-.54c1.57-.9,2.33-2.75,1.86-4.5s-2.05-2.96-3.86-2.96c-.52,0-1.03.1-1.5.3-1.42.57-2.38,1.9-2.49,3.42s.67,2.97,1.99,3.74v.54H1V5C1,2.79,2.79,1,5,1h22v12h.54c.53-.93,1.42-1.61,2.46-1.87v1.87h.54s1.41-1.48,1.96-1.7c1.51.61,2.5,2.07,2.5,3.7h0Z" fill="#3f96fc" stroke-width="0"/><path d="M30,1v12l1.6-1.2c.7-.53,1.53-.8,2.4-.8,1.13,0,2.2.48,2.96,1.31,1.4,1.53,1.4,3.85,0,5.38-.76.83-1.84,1.31-2.96,1.31-.87,0-1.7-.28-2.4-.8l-1.6-1.2v13h-1s-11,.01-11,.01v-.54c1.56-.9,2.33-2.75,1.87-4.49-.47-1.74-2.06-2.96-3.87-2.96s-3.4,1.22-3.87,2.96c-.47,1.74.3,3.59,1.87,4.5v.54H1V5C1,2.79,2.79,1,5,1h25M31,0H5C2.24,0,0,2.24,0,5v25C0,30.27.1,30.52.29,30.71c.19.18.44.29.71.29h13c.27,0,.52-.1.71-.29.18-.19.29-.44.29-.71v-.54c0-.36-.19-.69-.5-.87-1.18-.68-1.75-2.06-1.4-3.37.35-1.31,1.54-2.22,2.9-2.22s2.55.91,2.9,2.22c.35,1.31-.22,2.69-1.4,3.37-.31.18-.5.51-.5.87v.54c0,.27.1.52.29.71.19.18.44.29.71.29h12c.27-.01.52-.11.71-.3.18-.19.29-.44.29-.71v-11c.9.67,1.95,1,3,1,1.36,0,2.72-.56,3.7-1.63,1.74-1.91,1.74-4.82,0-6.73-.98-1.08-2.33-1.63-3.69-1.63-1.05,0-2.11.33-3.01,1V0h0Z" fill="#121212" stroke-width="0"/><path id="_ffce00" d="M52.26,16.44c.25.7.73,1.33,1.34,1.77,2.06,1.48,4.71.77,5.86-1.21h.54v13h-13v.54c1.97,1.14,2.67,3.76,1.25,5.81-.4.57-.96,1.03-1.6,1.3-2.41,1.02-4.91-.36-5.51-2.62-.47-1.75.3-3.59,1.86-4.5v-.54h-12v-13h.54c1.14,1.97,3.76,2.67,5.81,1.25.57-.4,1.03-.96,1.3-1.6,1.02-2.41-.36-4.91-2.62-5.51-1.75-.47-3.59.3-4.5,1.86h-.54V1h27.97c.57,0,1.03.46,1.03,1.03v10.97h-.54c-.9-1.57-2.75-2.33-4.5-1.86-2.21.59-3.55,2.95-2.7,5.3Z" fill="#fccc00" stroke-width="0"/><path id="Shape-4" d="M49,15c0,1.06.42,2.08,1.17,2.83s1.77,1.17,2.83,1.17c.52,0,1.03-.1,1.5-.3.47.2.98.3,1.5.3.34,0,.67-.04,1-.13v11.13h-10v.54c1.57.9,2.33,2.75,1.86,4.5s-2.05,2.96-3.86,2.96c-.52,0-1.03-.1-1.5-.3-1.42-.57-2.38-1.9-2.49-3.42-.11-1.52.67-2.97,1.99-3.74v-.54h-12v-13h.54c.44.77,1.13,1.37,1.96,1.7.96.41,2.09.4,3.13-.03s1.85-1.34,2.18-2.41c.84-2.75-1.19-5.26-3.81-5.26-.52,0-1.03.1-1.5.3-.83.33-1.52.93-1.96,1.7h-.54V1h26v10.13c-.33-.09-.66-.13-1-.13-.52,0-1.03.1-1.5.3-.47-.2-.98-.3-1.5-.3-1.06,0-2.08.42-2.83,1.17s-1.17,1.77-1.17,2.83Z" fill="#ffe205" stroke-width="0"/><path d="M43,31.01v.54c-1.56.9-2.33,2.75-1.87,4.49.47,1.74,2.06,2.96,3.87,2.96s3.4-1.22,3.87-2.96c.47-1.74-.3-3.59-1.87-4.5v-.54h13v25.99c0,1.65-1.34,3-3,3h-10s0-.55,0-.55c1.57-.9,2.33-2.75,1.87-4.49-.47-1.74-2.06-2.96-3.87-2.96s-3.4,1.22-3.87,2.96c-.47,1.74.3,3.59,1.87,4.5v.54h-12v-12l-1.6,1.2c-.7.53-1.53.8-2.4.8-1.13,0-2.2-.48-2.96-1.31-1.4-1.53-1.4-3.85,0-5.38.76-.83,1.84-1.31,2.96-1.31.87,0,1.7.28,2.4.8l1.6,1.2v-13h12M43,30.01h-12c-.27,0-.52.1-.71.29-.18.19-.29.44-.29.71v11c-.9-.67-1.95-1-3-1-1.36,0-2.72.56-3.7,1.63-1.74,1.91-1.74,4.82,0,6.73.98,1.08,2.33,1.63,3.69,1.63,1.05,0,2.11-.33,3.01-1v10c0,.27.1.52.29.71.19.18.44.29.71.29h12c.27,0,.52-.1.71-.29.18-.19.29-.44.29-.71v-.54c0-.36-.19-.69-.5-.87-1.18-.68-1.75-2.06-1.4-3.37s1.54-2.22,2.9-2.22,2.55.91,2.9,2.22c.35,1.31-.22,2.69-1.4,3.37-.31.18-.5.51-.5.87v.54c0,.27.1.52.29.71.19.18.44.29.71.29,0,0,5.86,0,10,0,0,0,0,0,0,0,2.21,0,4-1.79,4-4v-25.99c0-.27-.1-.52-.29-.71-.19-.18-.44-.29-.71-.29h-13c-.27,0-.52.1-.71.29-.18.19-.29.44-.29.71v.54c0,.36.19.69.5.87,1.18.68,1.75,2.06,1.4,3.37-.35,1.31-1.54,2.22-2.9,2.22s-2.55-.91-2.9-2.22c-.35-1.31.22-2.69,1.4-3.37.31-.18.5-.51.5-.87v-.54c0-.27-.1-.52-.29-.71-.19-.18-.44-.29-.71-.29h0Z" fill="#121212" stroke-width="0"/><path d="M57.01,1c1.65,0,3,1.35,3,3v9h-.54c-.71-1.23-2.04-2-3.46-2-.35,0-.7.05-1.03.14-1.74.47-2.96,2.06-2.96,3.87s1.22,3.4,2.96,3.87c.34.09.69.14,1.03.14,1.43,0,2.76-.77,3.46-2h.54v13h-13.01l1.21,1.6c.91,1.21,1.06,2.82.38,4.19-.69,1.36-2.06,2.21-3.6,2.21s-2.91-.87-3.58-2.21c-.68-1.36-.53-2.96.39-4.19l1.2-1.6h-12v-13h.54c.71,1.23,2.04,2,3.46,2,.35,0,.7-.05,1.03-.14,1.74-.47,2.96-2.06,2.96-3.87s-1.22-3.4-2.96-3.87c-.34-.09-.69-.14-1.03-.14-1.43,0-2.76.77-3.46,2h-.54V1h26M57.01,0h-26c-.27,0-.52.1-.71.29-.18.19-.29.44-.29.71v12c0,.27.1.52.29.71.19.18.44.29.71.29h.54c.36,0,.69-.19.87-.5.54-.95,1.54-1.5,2.59-1.5.26,0,.52.03.78.1,1.31.35,2.22,1.54,2.22,2.9s-.91,2.55-2.22,2.9c-.26.07-.52.1-.78.1-1.05,0-2.05-.55-2.59-1.5-.18-.31-.51-.5-.87-.5h-.54c-.27,0-.52.1-.71.29-.18.19-.29.44-.29.71v13c0,.27.1.52.29.71.19.18.44.29.71.29h10c-1.14,1.52-1.33,3.55-.48,5.24.84,1.69,2.58,2.76,4.47,2.76h.02c1.89,0,3.62-1.07,4.47-2.76.84-1.7.66-3.73-.48-5.24h12v-14c0-.27-.1-.52-.29-.71-.19-.18-.44-.29-.71-.29h-.54c-.36,0-.69.19-.87.5-.54.95-1.54,1.5-2.59,1.5-.26,0-.52-.03-.78-.1-1.31-.35-2.22-1.54-2.22-2.9s.91-2.55,2.22-2.9c.26-.07.52-.1.78-.1,1.05,0,2.05.55,2.59,1.5.18.31.51.5.87.5h.54c.27,0,.52-.1.71-.29.18-.19.29-.44.29-.71V4c0-2.21-1.79-4-4-4h0Z" fill="#121212" stroke-width="0"/><path id="Shape-3" d="M60,31.08v25.93c0,1.65-1.35,2.99-2.99,2.99h-10.01v-.54c1.97-1.14,2.67-3.76,1.25-5.81-.4-.57-.96-1.03-1.6-1.3-2.41-1.02-4.91.36-5.51,2.62-.47,1.75.3,3.59,1.86,4.5v.54h-11.92s-.08-.04-.08-.08v-11.92h-.54c-1.14,1.97-3.76,2.67-5.81,1.25-.57-.4-1.03-.96-1.3-1.6-1.02-2.41.36-4.91,2.62-5.51,1.75-.47,3.59.3,4.5,1.86h.54v-12.92s.04-.08.08-.08h11.92v.54c-1.97,1.14-2.67,3.76-1.25,5.81.4.57.96,1.03,1.6,1.3,2.41,1.02,4.91-.36,5.51-2.62.47-1.75-.3-3.59-1.86-4.5v-.54h12.92s.08.04.08.08Z" fill="#9282fa" stroke-width="0"/><path id="Shape-6" d="M57,31v29h-10v-.54c1.57-.9,2.33-2.75,1.86-4.5-.47-1.75-2.05-2.96-3.86-2.96-.52,0-1.03.1-1.5.3-1.42.57-2.38,1.9-2.49,3.42s.67,2.97,1.99,3.74v.54h-12v-12h-.54c-.53.93-1.42,1.61-2.46,1.87-.33.09-.66.13-1,.13-.52,0-1.03-.1-1.5-.3-1.51-.61-2.5-2.07-2.5-3.7s.99-3.09,2.5-3.7c.47-.2.98-.3,1.5-.3.34,0,.67.04,1,.13,1.04.26,1.93.94,2.46,1.87h.54v-13h12v.54c-1.32.76-2.1,2.21-1.99,3.74.11,1.52,1.07,2.85,2.49,3.42.92.39,2,.4,3.01.02.68-.26,1.28-.73,1.71-1.33,1.47-2.06.76-4.7-1.22-5.85v-.54s10,0,10,0Z" fill="#b595ff" stroke-width="0"/><path d="M1,56c0,2.21,1.79,4,4,4h25v-12h-.54c-1.15,1.98-3.8,2.68-5.86,1.21-.61-.44-1.08-1.06-1.34-1.77-.85-2.36.5-4.71,2.7-5.3,1.75-.47,3.6.29,4.5,1.86h.54v-5H1v17Z" fill="#fa85dc" stroke-width="0"/><path d="M1,57.04c0,1.64,1.33,2.96,2.96,2.96h23.04v-10.13c-.33.09-.66.13-1,.13-.52,0-1.03-.1-1.5-.3-1.51-.61-2.5-2.07-2.5-3.7s.99-3.09,2.5-3.7c.47-.2.98-.3,1.5-.3.34,0,.67.04,1,.13v-3.13H1v18.04Z" fill="#ffa4e6" stroke-width="0"/><path d="M25.21,43.1c.26-.07.52-.1.78-.1,1.05,0,2.05.55,2.59,1.5.18.31.51.5.87.5h.54c.27,0,.52-.1.71-.29.18-.19.29-.44.29-.71v-5h-1v5h-.54c-.71-1.23-2.04-2-3.46-2-.35,0-.7.05-1.03.14-1.74.47-2.96,2.06-2.96,3.87s1.22,3.4,2.96,3.87c.34.09.69.14,1.03.14,1.43,0,2.76-.77,3.46-2h.54v12H4c-1.66,0-3-1.34-3-3v-18H0v18C0,59.21,1.79,61,4,61h26.99v-13c0-.27-.1-.52-.29-.71-.19-.18-.44-.29-.71-.29h-.54c-.36,0-.69.19-.87.5-.54.95-1.54,1.5-2.59,1.5-.26,0-.52-.03-.78-.1-1.31-.35-2.22-1.54-2.22-2.9s.91-2.55,2.22-2.9Z" fill="#121212" stroke-width="0"/></svg>