<?xml version="1.0" encoding="UTF-8"?><svg id="Layer_2" xmlns="http://www.w3.org/2000/svg" viewBox="0 0 100 100"><g id="Layer_7"><path d="M99,75.43c-.4-1.93-1.89-3.68-3.93-3.84-1.12-.09-2.45-.22-4.07,1.02-.33.26-.81.04-.82-.38-.02-2.93-.07-10.84-.07-12.07,0-.09-.07-.16-.17-.16-1.38,0-10.92,0-13.32,0-.18,0-.27.22-.13.34,1.23,1.13,1.9,2.86,1.5,4.73s-1.92,3.42-3.81,3.82c-3.23.67-6.07-1.78-6.07-4.89,0-1.45.63-2.75,1.62-3.66.13-.12.04-.34-.14-.34h-12.28c-.11,0-.19.08-.19.19,0,1.42,0,10.46,0,12.79,0,.18.22.27.34.14,1.13-1.23,2.86-1.9,4.73-1.5s3.42,1.92,3.81,3.81c.67,3.23-1.78,6.07-4.89,6.07-1.45,0-2.75-.63-3.66-1.62-.12-.13-.34-.04-.34.14v12.78c0,.11.09.2.2.2h32.4c.22,0,.4-.18.4-.4v-11.88c0-.42.49-.65.81-.38.86.73,1.97,1.17,3.19,1.17,3.11,0,5.56-2.84,4.89-6.07Z" style="fill:#ffa2e2; stroke-width:0px;"/><path d="M95.89,72.24c-.4-1.93-1.89-3.68-3.93-3.84-1.3-.1-2.92.15-4.88,1.74-.03.03-.08.01-.08-.03,0-1.15,0-12.52,0-13.26,0-.02-.02-.04-.04-.04h-13.85s-.07.06-.03.09c1.38,1.09,2.19,2.87,1.83,4.84-.28,1.54-1.3,3.05-3.18,3.63-4.94,1.52-8.3-4.94-4.26-8.15.02-.02.04-.03.06-.04.15-.12.07-.36-.12-.36-2.59,0-12.61,0-13.37,0-.03,0-.05.02-.05.05v13.34s.06.07.09.03c1.09-1.38,2.87-2.19,4.84-1.83s3.56,1.9,3.97,3.84c.67,3.23-1.78,6.07-4.89,6.07-1.59,0-3-.76-3.91-1.92-.03-.04-.09-.02-.09.03v13.34s.02.05.05.05h32.9s.05-.02.05-.05v-13.34s.06-.07.09-.03c.91,1.16,2.32,1.92,3.91,1.92,3.11,0,5.56-2.84,4.89-6.07Z" style="fill:none; stroke:#262626; stroke-miterlimit:10; stroke-width:2px;"/><path d="M44.8,45.36c1.04-1.59,1-3.72-.08-5.29-.88-1.26-2.18-1.94-3.53-2.05-.4-.03-.56-.53-.28-.81l8.18-8.18c.07-.07.07-.2,0-.27l-8.99-8.99c-.13-.13-.33-.03-.33.15.06,1.55-.62,3.12-2.07,4.12-1.56,1.08-3.7,1.12-5.29.08-2.64-1.73-2.91-5.31-.8-7.42,1.08-1.08,2.54-1.52,3.95-1.35.04,0,.07-.04.04-.08-.87-.87-7.57-7.57-8.6-8.6-.07-.07-.19-.07-.27,0L4.69,28.76c-.07.07-.07.2,0,.27l22.07,22.07c.07.07.2.07.27,0l8.18-8.18c.28-.28.78-.12.81.27.09,1.08.54,2.13,1.37,2.96,2.11,2.11,5.69,1.84,7.42-.8Z" style="fill:#ffa2e2; stroke-width:0px;"/><path d="M86.91,43.08c-1.09,1.38-2.87,2.19-4.84,1.83s-3.56-1.9-3.96-3.84c-.67-3.23,1.78-6.07,4.89-6.07,1.59,0,3,.76,3.91,1.92l.09-.03v-12.84s-.02-.05-.05-.05h-32.9s-.05.02-.05.05v32.9s.02.05.05.05h13.64s.07.06.03.09c-1.38,1.09-2.19,2.87-1.83,4.84s1.9,3.56,3.84,3.96c3.23.67,6.07-1.78,6.07-4.89,0-1.59-.76-3-1.92-3.92-.04-.03-.02-.08.03-.08h13.05s.04-.01.04-.03c0-.72,0-12.45,0-13.86,0-.05-.06-.06-.09-.03Z" style="fill:#ffe205; stroke:#262626; stroke-miterlimit:10; stroke-width:2px;"/><path d="M43.78,44.43c1.09-1.66,1.05-3.89-.08-5.52s-2.97-2.33-4.72-2.13c-.05,0-.07-.04-.04-.08.96-.96,8.86-8.86,9.44-9.44.02-.02.02-.05,0-.07l-9.78-9.78s-.09,0-.08.04c.21,1.75-.48,3.58-2.13,4.72s-3.86,1.17-5.52.08c-2.76-1.81-3.04-5.55-.84-7.75,1.13-1.13,2.66-1.59,4.12-1.41.05,0,.07-.05.04-.08-.95-.95-8.52-8.52-9.08-9.08-.02-.02-.05-.02-.07,0L1.77,27.2s-.02.05,0,.07l23.26,23.26s.05.02.07,0l9.43-9.43s.09,0,.08.04c-.17,1.47.29,3,1.41,4.12,2.2,2.2,5.94,1.92,7.75-.84Z" style="fill:none; stroke:#000; stroke-miterlimit:10; stroke-width:2px;"/><path d="M32.58,61.74c-.36-1.97.45-3.75,1.83-4.84.04-.03.02-.09-.03-.09h-13.34s-.05.02-.05.05v32.9s.02.05.05.05h32.9s.05-.02.05-.05v-32.9s-.02-.05-.05-.05h-13.34s-.07.06-.03.08c1.16.91,1.92,2.32,1.92,3.92,0,3.11-2.84,5.56-6.07,4.89-1.94-.4-3.49-2.01-3.84-3.96Z" style="fill:#ffe205; stroke:#262626; stroke-miterlimit:10; stroke-width:2px;"/><rect width="100" height="100" style="fill:none; stroke-width:0px;"/></g></svg>