<svg xmlns="http://www.w3.org/2000/svg" viewBox="0 0 400 400" id="Designer-Keynote-1--Streamline-Barcelona.svg" height="400" width="400"><desc>DESIGNER KEYNOTE 1 Streamline Illustration: https://streamlinehq.com</desc><defs></defs><path d="M169.242 177.656a0.86 0.86 0 0 0 0 -1.72h-6.716a0.86 0.86 0 0 0 0 1.72h2.8a0.822 0.822 0 0 0 -0.154 0.46c0 6.012 -0.17 39.508 -0.85 54.332h-1.8a0.86 0.86 0 0 0 0 1.72h6.716a0.86 0.86 0 0 0 0 -1.72h-3.2c0.642 -14.292 0.84 -39.978 0.84 -54.322a0.73 0.73 0 0 0 -0.154 -0.46z" fill="#000000" stroke-width="1"></path><path d="M389.16 301.2c-0.2 -6.748 -7.782 -266.07 -7.894 -269.212a123.6 123.6 0 0 0 -1.714 0.138c0.05 1.8 7.928 272.146 8.082 275.626 -21.376 -0.88 -108.52 -3.08 -130.716 -3.286 -22.8 -0.216 -112.882 0.43 -135.138 0.952 -21.746 0.512 -69.924 2.232 -72.268 2.334 0.45 -27.498 0.492 -55 0.378 -82.496 -0.574 0.144 -1.146 0.256 -1.718 0.37 0.028 7.2 -0.054 62.552 -0.4 83.026a0.862 0.862 0 0 0 0.86 0.86c21.664 -0.89 109.358 -3.122 131.544 -3.326 22.79 -0.216 112.902 0.43 135.17 0.952 21.754 0.512 70.538 2.264 73.17 2.364a0.734 0.734 0 0 0 0.654 -0.296c0.326 -0.348 0.23 0.026 -0.01 -8.006zM49.788 204.252c0 -1.678 -0.62 -151.922 -0.332 -170.924 -0.6 -0.02 -1.162 -0.026 -1.716 -0.046 -0.532 35.024 0.186 149.584 0.328 171.852 0.584 -0.288 1.158 -0.574 1.72 -0.882z" fill="#aceac7" stroke-width="1"></path><path d="M302.968 159.134h-43.664l0.982 46.132c16.034 -2.958 44.156 -0.982 44.156 -0.982 -0.48 -8.632 -1.474 -45.15 -1.474 -45.15zm-37 8.642h23.958a172.072 172.072 0 0 0 -14.958 23.054zm9.912 27.376a172.102 172.102 0 0 0 14.956 -23.056l9 23.056z" fill="#aceac7" stroke-width="1"></path><path d="M316.79 162.462a2.344 2.344 0 1 0 4.688 0 2.344 2.344 0 1 0 -4.688 0" fill="#f55555" stroke-width="1"></path><path d="M317.036 182.692a2.344 2.344 0 1 0 4.688 0 2.344 2.344 0 1 0 -4.688 0" fill="#f55555" stroke-width="1"></path><path d="M319.624 199.104a2.344 2.344 0 1 0 2.344 2.344 2.342 2.342 0 0 0 -2.344 -2.344z" fill="#f55555" stroke-width="1"></path><path d="M230.7 73.854h137.964a0.86 0.86 0 0 0 0 -1.72H230.7a0.86 0.86 0 0 0 0 1.72zm137.964 15.368H230.7a0.86 0.86 0 0 0 0 1.72h137.964a0.86 0.86 0 0 0 0 -1.72zm0 44.236H230.7a0.86 0.86 0 0 0 0 1.72h137.964a0.86 0.86 0 0 0 0 -1.72z" fill="#dcbeff" stroke-width="1"></path><path d="M185.756 85.034c-10.652 -18.47 -38.378 -24.316 -53.556 -8.138a33.542 33.542 0 0 1 6.664 8.138 30.512 30.512 0 0 1 3.288 19.904 36.014 36.014 0 0 1 20.524 15.96 28.634 28.634 0 0 1 3.37 9.862 36.782 36.782 0 0 0 20.634 -18.35 30.55 30.55 0 0 0 -0.924 -27.376z" fill="#f55555" stroke-width="1"></path><path d="M123.644 104.282A33.6 33.6 0 0 1 132.2 76.896c-10.6 -9.496 -26.652 -12.53 -39.26 -5.856 -12.14 6.418 -18.396 20.96 -16.022 34.336a33.142 33.142 0 0 0 23.6 25.964 31.266 31.266 0 0 1 23.126 -27.058z" fill="#cff0fa" stroke-width="1"></path><path d="M123.644 104.282a34.664 34.664 0 0 1 18.506 0.656A29.844 29.844 0 0 0 132.2 76.896a33.6 33.6 0 0 0 -8.556 27.386z" fill="#7d4ab4" stroke-width="1"></path><path d="M132.53 122.41a32.866 32.866 0 0 1 -32.014 8.93A32.862 32.862 0 0 0 134.6 168.308a35.8 35.8 0 0 0 29.022 -20.024 30.1 30.1 0 0 0 2.422 -17.524 31.924 31.924 0 0 1 -33.514 -8.35z" fill="#ffd35c" stroke-width="1"></path><path d="M142.15 104.938a32.06 32.06 0 0 1 -9.62 17.472 31.9 31.9 0 0 0 33.514 8.35c-1.924 -12.694 -12.062 -22.16 -23.894 -25.822z" fill="#f55555" stroke-width="1"></path><path d="M132.53 122.41a32.84 32.84 0 0 1 -8.886 -18.128A31.264 31.264 0 0 0 100.516 131.34a32.848 32.848 0 0 0 32.014 -8.93z" fill="#6dd3a8" stroke-width="1"></path><path d="M123.644 104.282a32.852 32.852 0 0 0 8.886 18.128 32.07 32.07 0 0 0 9.62 -17.472 34.564 34.564 0 0 0 -18.506 -0.656z" fill="#000000" stroke-width="1"></path><path d="M175.456 367.31a3.722 3.722 0 0 0 -1.484 -2.058c-5.62 -4.586 -17.22 -5.302 -24.13 -6.03 -8.856 -0.942 -17.762 -1.014 -26.66 -1.382a512.384 512.384 0 0 0 -70.906 2c-7.2 0.696 -18.674 -0.42 -24.16 5.2a2.954 2.954 0 0 0 -1.056 2.618 3.162 3.162 0 0 0 1.72 1.752c12.6 7.064 30.55 6.348 44.556 7.136a404.8 404.8 0 0 0 82.874 -2.8c2.252 -0.324 20.044 -1.914 19.246 -6.436z" fill="#aceac7" stroke-width="1"></path><path d="M385.26 22.574c-35.842 0.712 -278.682 5.138 -339.414 0.84a4.986 4.986 0 0 0 -5.23 3.766 4.924 4.924 0 0 0 4.708 6.02C134 35.666 296.656 39.06 385.76 31.634a4.556 4.556 0 0 0 4.228 -4.822 4.616 4.616 0 0 0 -4.728 -4.238z" fill="#6dd3a8" stroke-width="1"></path><path d="M217.104 68.622a0.86 0.86 0 0 0 -1.72 0v65.696a0.86 0.86 0 0 0 1.72 0c0.056 -63.746 0 -65.896 0 -65.696z" fill="#aceac7" stroke-width="1"></path><path d="m176.542 183.952 14.6 37.378a278.974 278.974 0 0 1 24.234 -37.378z" fill="#ffd35c" stroke-width="1"></path><path d="M274.088 213.14c-17.814 3.5 -31.062 19.6 -28.544 38 4.3 31.358 45.702 42.538 63.668 15.55 17.528 -26.28 -7.212 -59.044 -35.124 -53.55zm-5.458 43.766 -10.156 -25.984a0.858 0.858 0 0 1 0.82 -1.084h27a0.868 0.868 0 0 1 0.6 1.464 176.64 176.64 0 0 0 -16.6 25.572 0.866 0.866 0 0 1 -1.664 0.032zm33.212 7.494h-27a0.868 0.868 0 0 1 -0.6 -1.464 185.842 185.842 0 0 0 16.6 -25.574 0.846 0.846 0 0 1 1.432 -0.38c0.268 0.22 -0.43 -1.47 10.424 26.342a0.888 0.888 0 0 1 -0.856 1.076z" fill="#dcbeff" stroke-width="1"></path><path d="M216.714 193.012a262.6 262.6 0 0 1 -22.4 34.47h35.864c-1.004 -2.588 -13.378 -34.26 -13.464 -34.47zm74.86 46.566a181.064 181.064 0 0 1 -15 23.11H300.6c-1.696 -4.384 -6.876 -17.596 -9.026 -23.11z" fill="#b26ee6" stroke-width="1"></path><path d="M378.696 252.36a0.888 0.888 0 0 0 -0.6 -1.054 0.862 0.862 0 0 0 -1.054 0.6 192.86 192.86 0 0 0 -0.532 41.36c-9.098 -0.662 -32.534 -0.818 -41.554 -0.818a0.86 0.86 0 0 0 0 1.72c6.418 0 33.376 0.154 42.486 0.88a0.866 0.866 0 0 0 0.86 -0.862 200.244 200.244 0 0 1 0.394 -41.826zM99.748 42.364c-5.866 0 -31.4 -0.152 -39.886 -0.87a0.858 0.858 0 0 0 -0.86 0.86A213.034 213.034 0 0 1 58.6 84.4c-0.142 1.094 1.578 1.084 1.72 0a205.268 205.268 0 0 0 0.48 -41.126c8.626 0.67 30.4 0.81 38.964 0.81a0.86 0.86 0 0 0 -0.016 -1.72z" fill="#6dd3a8" stroke-width="1"></path><path d="m161.052 255.124 -0.358 15.766 71.848 1.434 1.168 -14.414c-14.548 1.472 -72.658 -2.786 -72.658 -2.786z" fill="#ffd35c" stroke-width="1"></path><path d="M23.642 200.014c-1.566 -0.382 -1.25 1.556 -1.106 2.55a5.746 5.746 0 0 0 1.116 2.712q-3.2 -1.966 -6.512 -3.716c-0.972 -0.512 -2.4 -0.912 -2.99 0 -0.48 0.748 0.052 1.72 0.564 2.448l1.76 2.466a16.8 16.8 0 0 1 -2.856 -0.818 2.266 2.266 0 0 0 -2.63 0.8c-0.492 0.972 0.296 2.13 1.2 2.744a9.718 9.718 0 0 1 2.65 1.884 25.214 25.214 0 0 1 -2.59 -0.6 1.908 1.908 0 0 0 -2.2 1.054c-0.276 1 0.758 1.844 1.658 2.344a47.24 47.24 0 0 0 14.936 5.232 36.492 36.492 0 0 1 2.868 -13.852 885.25 885.25 0 0 1 -3.308 -3.45 6.09 6.09 0 0 0 -2.56 -1.798zM176 196.186c-0.232 -0.862 -1.322 -1.178 -2.2 -1.054a26.25 26.25 0 0 1 -2.6 0.6 9.722 9.722 0 0 1 2.652 -1.882c0.91 -0.616 1.688 -1.762 1.2 -2.744a2.266 2.266 0 0 0 -2.632 -0.81 15.106 15.106 0 0 1 -2.856 0.82c0.584 -0.82 1.178 -1.648 1.76 -2.468 0.524 -0.726 1.046 -1.7 0.564 -2.446 -0.6 -0.922 -2.016 -0.532 -3 0q-3.314 1.748 -6.51 3.716a5.942 5.942 0 0 0 1.116 -2.714c0.142 -1 0.45 -2.938 -1.106 -2.548 -1.444 0.356 -2.65 1.894 -6.686 6.112a28.092 28.092 0 0 1 5.294 12.704 47.264 47.264 0 0 0 13.318 -4.914c0.928 -0.53 1.956 -1.37 1.686 -2.372zM104.704 138.056a3.014 3.014 0 0 0 -3.052 1.116 5.718 5.718 0 0 1 -0.45 1.136c-4.094 -0.686 -7.126 -4 -9.8 -7.116a6.088 6.088 0 0 1 -3.214 1.588c-1.218 0.072 -2.57 -0.922 -2.354 -2.1a33.728 33.728 0 0 1 -11.222 8.6 8.2 8.2 0 0 1 -2.732 0.984c-1.234 0 -1.842 -2.624 -4.27 -1.946 -2.528 0.716 -1.924 5.15 -1.116 6.87 0.89 1.884 2.918 2.016 4.904 1.8a15.468 15.468 0 0 0 13.38 11.27 6.492 6.492 0 0 0 1.742 -0.184 0.644 0.644 0 0 1 0.336 1.24 10.498 10.498 0 0 1 -4.964 -0.184c-0.108 2.568 -0.13 9.348 2.036 10.728 3.348 2.138 9.672 0.8 10.6 -2.734 0.632 -2.432 -0.436 -7.738 -0.962 -10.166a15.822 15.822 0 0 0 8.8 -12.172 3.586 3.586 0 0 0 3.454 -1.986c0.838 -1.728 1.432 -6.022 -1.116 -6.744z" fill="#e59e70" stroke-width="1"></path><path d="M72.7 193.75a0.862 0.862 0 0 0 -1.054 0.6 30.672 30.672 0 0 0 -0.308 9.172 0.888 0.888 0 0 0 0.86 0.86 0.872 0.872 0 0 0 0.86 -0.86 29.6 29.6 0 0 1 0.246 -8.712 0.894 0.894 0 0 0 -0.604 -1.06zm38.7 4.904a34.6 34.6 0 0 0 -0.728 -7.444 0.874 0.874 0 0 0 -1.054 -0.6 0.882 0.882 0 0 0 -0.6 1.054 32.2 32.2 0 0 1 0.666 7 0.86 0.86 0 0 0 1.716 -0.01zm235.866 -36.744c-1.552 -1.364 -3.514 -2.46 -5.18 -1.25 -0.172 0.124 -0.388 0.462 -0.584 0.522 -0.43 0.144 -1.156 -0.736 -1.494 -1a2.264 2.264 0 0 0 -2.386 -0.368c-0.768 0.4 -1.034 1.176 -1.6 1.77 -0.894 0.926 -2 -1.8 -4 -1.352a2.878 2.878 0 0 0 -1.75 1.454c-0.174 0.288 -0.624 1.434 -1.014 1.352 -0.428 -0.08 -0.46 -1.216 -1.658 -2.098 -0.902 -0.646 -1.75 0.838 -0.87 1.484 0.626 0.45 0.778 1.412 1.4 1.914a1.874 1.874 0 0 0 2.188 0.124 5 5 0 0 0 1.354 -1.8c0.296 -0.512 0.572 -0.962 1.176 -0.636a13.638 13.638 0 0 0 2.1 1.372 2.176 2.176 0 0 0 2.322 -0.676c0.288 -0.326 0.748 -1.4 1.228 -1.422 0.554 -0.03 1.312 0.982 1.752 1.26a2.022 2.022 0 0 0 2.64 -0.39c1 -0.86 2.346 0.236 3.144 0.932 0.854 0.752 2.072 -0.456 1.232 -1.192zm-1.77 19.318c-0.39 0.266 -1.064 -0.388 -1.4 -0.6a3.102 3.102 0 0 0 -2.13 -0.6 3.464 3.464 0 0 0 -1.822 1.23c-0.502 0.522 -0.686 0.5 -1.158 -0.032a4 4 0 0 0 -1.454 -1.268 2.048 2.048 0 0 0 -2.108 0.4c-0.348 0.288 -0.85 1.096 -1.342 0.922 -0.6 -0.216 -1.904 -2.722 -4.4 -0.624 -0.538 0.448 -0.778 0.91 -1.514 0.87a0.046 0.046 0 0 0 -0.032 0.01c0 -1.112 -1.858 -0.774 -1.658 0.4a1.698 1.698 0 0 0 1.75 1.32 3.27 3.27 0 0 0 2.254 -1.014c0.276 -0.246 0.706 -0.746 1.114 -0.696 0.338 0.042 0.636 0.43 0.872 0.646 2.328 2.134 3.55 -0.316 4.146 -0.6 0.512 -0.246 0.962 0.624 1.258 0.952a2.256 2.256 0 0 0 2.068 0.818c0.882 -0.184 1.3 -0.91 1.946 -1.442s1.4 0.244 1.976 0.582a2.254 2.254 0 0 0 2.498 0.2c0.906 -0.614 0.056 -2.102 -0.864 -1.474zm-1.556 19.318a1.676 1.676 0 0 0 -1.576 -1.894c-1.106 -0.03 -1.566 0.748 -2.376 1.312s-1.772 -0.85 -2.416 -1.24a2.102 2.102 0 0 0 -3.462 1.096c-0.142 0.4 -0.06 0.614 -0.47 0.306 -0.788 -0.582 -1.32 -1.228 -2.364 -1.32a3.326 3.326 0 0 0 -3.6 2.908c-0.134 1.096 1.586 1.086 1.72 0a1.6 1.6 0 0 1 1.4 -1.2c0.8 -0.112 1.238 0.512 1.814 0.952a1.858 1.858 0 0 0 2.426 0.184 2.324 2.324 0 0 0 0.634 -1.034c0.122 -0.348 0.102 -0.696 0.532 -0.644 0.828 0.102 1.464 1.106 2.16 1.504a2.34 2.34 0 0 0 2.702 -0.184 7.274 7.274 0 0 0 0.574 -0.546c0.936 -0.896 0.534 -0.108 0.666 0.4a1.4 1.4 0 0 0 2.038 0.984 0.88 0.88 0 0 0 -0.402 -1.584zM261.67 132.8c0.254 -0.4 -0.114 -2.182 -0.174 -2.672 -0.166 -1.29 -0.646 -1.044 -1.844 -1.086 -0.45 -0.02 -5.528 -0.482 -5.56 -0.4q2.904 -7.554 5.8 -15.11 9.474 -0.63 18.94 -1.588 2.782 8.078 5.4 16.2c-1.648 0.338 -3.294 0.664 -4.954 1 -1.474 0.308 -3.348 -0.06 -3.46 1.976 -0.05 0.942 -0.154 2.366 1.074 2.4 5.764 0.184 11.528 0.338 17.292 0.512a6.352 6.352 0 0 0 4.322 -0.912 2.2 2.2 0 0 0 0.778 -2.6c-1.122 -2.698 -5.8 -0.934 -7.292 -4.094 -1.566 -3.308 -2.732 -6.922 -4.062 -10.34a689.776 689.776 0 0 1 -15.182 -43.06l-5.356 0.04q-6.88 23.096 -13.75 46.182c-1.164 3.928 -2.494 8.132 -6.162 10.238 -0.83 0.482 -1.976 0.4 -2.722 1.014a4.964 4.964 0 0 0 -1.61 2.712c-0.09 1.928 1.116 -0.48 16.382 -0.224 0.614 0.03 1.832 0.286 2.14 -0.188zm7.514 -47.432q4.422 11.6 8.506 23.322l-16.276 0.86c4.704 -12.24 7.17 -17.838 7.77 -24.178zm64.948 47.312c3.032 1.382 8.858 0.776 9.95 -2.282a2.388 2.388 0 0 0 -0.256 -2.2c-0.844 -0.88 -1.298 0.082 -2.046 0.666a3.564 3.564 0 0 1 -2.366 0.972 4.066 4.066 0 0 1 -3.502 -2.968 12.75 12.75 0 0 1 -0.266 -4.868c0.488 -7 0.678 -19.386 -2.416 -25.706a10.554 10.554 0 0 0 -4.298 -4.72c-4 -2.15 -9.502 -1.116 -13.6 0.286 -7.986 2.724 -9.446 7.758 -8.1 10.014a3.692 3.692 0 0 0 4.228 1.4 6.062 6.062 0 0 0 3.42 -3.184c0.884 -1.766 -0.066 -5.104 4.3 -5.038a11.962 11.962 0 0 1 8.128 2.826c2.674 2.54 2.654 6.676 2.51 10.094a43.46 43.46 0 0 0 -15.522 4.834 19.724 19.724 0 0 0 -6.5 5.066 9.686 9.686 0 0 0 -2.108 7.762c0.89 4.228 5.272 6.92 9.552 7.554a18.45 18.45 0 0 0 15.6 -5.22 5.386 5.386 0 0 0 3.292 4.712zm-5 -12.162c-2.91 5.78 -9.714 8.18 -13.914 6.112A5.6 5.6 0 0 1 312 121.122c0.374 -2.63 3.534 -6.84 9.53 -8.672 2.386 -0.726 8.99 -2.62 9 1.434a14.614 14.614 0 0 1 -1.404 6.634zM217.4 190.37a0.8 0.8 0 0 0 -1.136 -0.062 250.252 250.252 0 0 1 -22.4 34.964 143.502 143.502 0 0 1 -1.864 2.446 0.87 0.87 0 0 0 0.6 1.464h38.832a0.864 0.864 0 0 0 0.83 -1.084c-6.628 -16.912 -14.582 -37.498 -14.862 -37.728zm-23.086 37.112a261.6 261.6 0 0 0 22.4 -34.47c1.414 3.612 13 33.284 13.464 34.47zm92.602 3.82a0.87 0.87 0 0 0 -0.6 -1.464h-27a0.872 0.872 0 0 0 -0.842 1.084l10.156 25.984a0.91 0.91 0 0 0 1.4 0.42 185.91 185.91 0 0 1 15.644 -24.356c0.24 -0.348 1.126 -1.56 1.242 -1.668zm-17.344 23.352c-0.91 -2.334 -8.742 -22.38 -9.03 -23.096h24.03a182.43 182.43 0 0 0 -15 23.096zm22.678 -17.68a0.8 0.8 0 0 0 -1.138 -0.062 0.694 0.694 0 0 0 -0.296 0.44 186.4 186.4 0 0 1 -16.6 25.572 0.872 0.872 0 0 0 0.6 1.466h27a0.866 0.866 0 0 0 0.83 -1.086c-0.072 -0.202 -10.078 -26.072 -10.396 -26.33zm-15.686 25.714a180.6 180.6 0 0 0 15 -23.11c0.91 2.334 8.742 22.376 9.03 23.09 -6.936 0.03 -24.23 0.02 -24.03 0.02zm-192.296 87.996c-11.384 -2.626 -11.384 11.24 -11.384 11.24H96.4s-0.738 -8.614 -12.132 -11.24zm26.732 0c-11.386 -2.626 -11.384 11.24 -11.384 11.24h23.496s-0.74 -8.614 -12.112 -11.24zM61.582 147.762a12.622 12.622 0 0 0 -2.314 4.278c-1.09 3.702 1.844 6.364 6.358 4.342a4.562 4.562 0 0 0 8.088 3.51 7.074 7.074 0 0 0 8.17 1.956c0 -0.256 0.01 -0.502 0.02 -0.748a10.63 10.63 0 0 0 4.966 0.186 0.64 0.64 0 0 0 -0.184 -1.25 0.4 0.4 0 0 0 -0.154 0c-4.928 1.254 -12.96 -3.386 -15.122 -11.088 -1.986 0.226 -4.012 0.094 -4.904 -1.79 -0.8 -1.72 -1.412 -6.154 1.116 -6.87 2.46 -0.686 3.014 1.944 4.27 1.944a8.032 8.032 0 0 0 2.734 -0.982 33.82 33.82 0 0 0 11.22 -8.6c-0.216 1.188 1.136 2.182 2.354 2.1a6.132 6.132 0 0 0 3.216 -1.588c2.682 3.124 5.712 6.44 9.8 7.116a5.842 5.842 0 0 0 0.45 -1.136 3.02 3.02 0 0 1 3.05 -1.116c2.54 0.716 1.956 5.016 1.126 6.756a3.6 3.6 0 0 1 -3.47 1.966 15.828 15.828 0 0 1 -8.8 12.172c0.164 0.758 0.328 1.588 0.492 2.438a2.65 2.65 0 0 0 1.36 -0.83c0.44 -0.552 0.052 -1.76 0.708 -1.494 0.326 0.132 0.49 0.48 0.674 0.788a4.038 4.038 0 0 0 7.516 -2.17 4.584 4.584 0 0 0 6.736 -6.2 3 3 0 0 0 1.976 -2.376c0.578 -3 -2.54 -9.156 -3.972 -11.8a46.72 46.72 0 0 0 -7.31 -10.472 20.628 20.628 0 0 0 -11.64 -6.624 9.508 9.508 0 0 0 -3.2 0.102 28.536 28.536 0 0 0 -3.634 -0.278c-10.226 0.42 -13.274 7.772 -16.36 12.072 -1.432 2 -2.908 3.982 -4.35 5.988 -1.188 1.64 -4.704 4.976 -3.502 7.454a5.322 5.322 0 0 0 2.516 2.244z" fill="#000000" stroke-width="1"></path><path d="M79.744 144.322a1.044 1.044 0 1 0 -2.088 0 1.044 1.044 0 0 0 2.088 0zm15.408 0.788a1.04 1.04 0 1 0 -1.024 -1.812 1.04 1.04 0 1 0 1.024 1.812zm-16.832 -4.638a3.466 3.466 0 0 0 -3.48 2.364 0.6 0.6 0 1 0 1.116 0.42 2.274 2.274 0 0 1 2.364 -1.536c0.696 0.012 0.696 -1.104 0 -1.248zm16.842 0.808a2.026 2.026 0 0 1 2.376 1.372c0.224 0.676 1.4 0.492 1.104 -0.306a3.282 3.282 0 0 0 -3.858 -2.294c-0.666 0.226 -0.36 1.33 0.378 1.228zm-13.524 7.996c-0.6 -0.296 -0.502 -0.256 -0.542 -0.276a0.744 0.744 0 0 0 -0.942 0.072 0.7 0.7 0 0 0 -0.318 0.9 10.298 10.298 0 0 0 4.3 5.488c4.168 2.276 9.242 -1.27 10.524 -5.908a0.868 0.868 0 0 0 -1.258 -0.972 13.364 13.364 0 0 1 -11.764 0.696zm70.026 58.07q-2.342 -6.264 -4.074 -12.716a0.86 0.86 0 0 0 -1.658 0.46 140.73 140.73 0 0 0 4.074 12.714c0.394 1.024 2.046 0.576 1.658 -0.458zm-116.25 1.912a52.82 52.82 0 0 0 0.788 13.77c0.2 1.086 1.854 0.626 1.66 -0.46a51.374 51.374 0 0 1 -0.728 -13.31c0.066 -1.094 -1.638 -1.094 -1.72 0z" fill="#000000" stroke-width="1"></path><path d="M110.54 220.276c-0.226 0.092 -2.724 0.692 -3.584 0.89 -8.244 1.862 -18.456 3.15 -26.752 1.72a24.488 24.488 0 0 1 -6.07 -1.772c-2.17 6.706 -14.876 50.886 1.514 121.466l19.136 0.262v-96.368l3.174 96.378 17.762 0.164c1.556 -10.986 10.944 -83.4 -5.058 -122.822a0.6 0.6 0 0 1 -0.122 0.082zm44.81 -17.928c-3.31 -1.43 -3.668 4.376 -0.378 3.502a1.828 1.828 0 0 0 0.378 -3.502zm-122.638 16.156c-3.322 -1.432 -3.66 4.374 -0.378 3.502a1.826 1.826 0 0 0 0.378 -3.502z" fill="#f55555" stroke-width="1"></path><path d="M80.368 238.038c1.494 -0.4 1.372 -0.678 1.648 -2.304a45.042 45.042 0 0 0 0.8 -11.19 0.894 0.894 0 0 0 -0.86 -0.86c-0.42 0 -0.922 0.4 -0.86 0.86a43.97 43.97 0 0 1 -0.922 11.754 12.128 12.128 0 0 1 -7.422 -0.656c-0.168 -0.064 -0.6 -0.226 -0.758 -0.308 -1 -0.46 -1.864 1.014 -0.87 1.486a14.2 14.2 0 0 0 9.244 1.218zm24.264 -1.864c2.836 1.236 7.288 0.302 10 -0.962 1 -0.47 0.134 -1.946 -0.87 -1.484a12.558 12.558 0 0 1 -8.16 0.962 44.122 44.122 0 0 1 -0.92 -11.754c0.06 -0.46 -0.44 -0.85 -0.86 -0.86a0.88 0.88 0 0 0 -0.86 0.86 37.438 37.438 0 0 0 0.706 10.69c0.146 0.798 0.116 2.174 0.964 2.548zm-30.866 106.38 0.234 6.082 21.756 0.246 0.102 -6.04c-22.732 -0.294 -19.444 -0.242 -22.092 -0.288zm23.792 0.288 0.348 6.066h19.6l0.35 -5.872z" fill="#fcafb7" stroke-width="1"></path><path d="M160.98 203.014c-0.458 -5.254 -4.714 -12.06 -8.088 -15.98a0.834 0.834 0 0 0 -1.35 0.174c-3.778 7.442 -14.046 7.512 -20.844 4.77a39.012 39.012 0 0 1 -13.6 -9.154c-6.226 -6.536 -8.968 -16.152 -22.488 -17.578 0.056 0.55 0.102 1.2 0.102 1.762a19.586 19.586 0 0 1 10.356 4.126c7.222 5.9 8.16 14.704 23.116 21.622a25.714 25.714 0 0 0 12.276 2.55 14.494 14.494 0 0 0 11.926 -6.164c4.042 5.052 6.8 10.124 6.8 16.514a80.176 80.176 0 0 1 -9.366 3.91 34.166 34.166 0 0 1 -19.626 1.034c-6.306 -1.382 -13.382 -3.634 -17.344 -9.09a0.866 0.866 0 0 0 -1.6 0.43c-1.054 10.266 -1.252 15.032 -1.6 16.738 -9.848 2.344 -24.366 5.184 -34.358 1.064a0.774 0.774 0 0 0 -0.112 -0.04c-0.758 -3.48 -1.504 -6.962 -2.2 -10.444a0.864 0.864 0 0 0 -1.566 -0.2c-3.092 5.212 -8.6 8.764 -13.892 11.478a35.2 35.2 0 0 1 -16.872 3.982 182.654 182.654 0 0 1 -4.904 -0.2 19.586 19.586 0 0 1 -6.418 -1c-2.348 -4.694 -0.034 -12.866 1.904 -17.722 4.658 4.064 11.2 3.696 16.83 1.352 10.416 -4.4 17.05 -15.36 21.336 -25.78a22.274 22.274 0 0 1 3.768 -7.064 22.044 22.044 0 0 1 9.12 -5.656 16.364 16.364 0 0 1 -0.254 -1.73 22.258 22.258 0 0 0 -11.6 8.134 59.548 59.548 0 0 0 -3.236 7.104 62.056 62.056 0 0 1 -9.152 15.274 29.736 29.736 0 0 1 -10 7.886c-5.698 2.508 -12.222 2.92 -16.524 -1.618a0.87 0.87 0 0 0 -1.352 0.172c-4.236 9.6 -3.516 16.054 -3.542 15.572 0.084 1.51 0.538 4.744 1.812 5.56a12 12 0 0 0 5.2 1.086c1.742 0.142 3.482 0.2 5.222 0.264a38 38 0 0 0 9.306 -0.542c9.526 -1.854 19.45 -8.438 23.526 -13.964 0.246 1.2 1.106 5.292 1.28 6.122a17.8 17.8 0 0 0 0.6 2.776c0.22 0.546 0.96 0.768 1.546 0.982a43.518 43.518 0 0 0 17.834 1.77c0.082 3.502 0.266 11.58 0.288 12.112a0.86 0.86 0 0 0 1.72 0c-0.042 -1.852 -0.082 -3.716 -0.134 -5.568 3.54 -0.4 3.55 -0.328 3.84 -0.616a0.862 0.862 0 0 0 -0.6 -1.464l-3.276 0.368 -0.124 -4.984a96 96 0 0 0 12.244 -1.986c0.846 -0.2 3.316 -0.79 3.584 -0.892a0.436 0.436 0 0 0 0.122 -0.082 1.534 1.534 0 0 0 0.696 -1.27c0.298 -1.842 0.298 -3.704 0.442 -5.558 0.234 -3.112 0.6 -6.226 0.94 -9.338a29.4 29.4 0 0 0 14.232 7.546 39 39 0 0 0 20.946 0.388c1.934 -0.54 3.86 -1.228 5.764 -1.892a29.77 29.77 0 0 0 5.662 -2.4c1.152 -0.716 1.974 -1.318 1.682 -4.646z" fill="#000000" stroke-width="1"></path></svg>