<?xml version="1.0" encoding="UTF-8"?><svg id="Layer_2" xmlns="http://www.w3.org/2000/svg" viewBox="0 0 48 48"><g id="items"><rect width="48" height="48" style="fill:none; stroke-width:0px;"/><path d="M34.57,10.04c-3.12,1.6-5.2-.03-9.57-.91-4.04-.81-7.43,2.31-8.58,3.53-.26.28-.34.68-.2,1.04l4.21,10.94c.25.65,1.07.84,1.6.38,3.02-2.67,7.3-1.78,9.98-.89,2.22.74,3.34-.16,3.78-.68.15-.18.22-.4.22-.63v-11.88c0-.73-.78-1.24-1.43-.9ZM30.15,22.53l-.86-2.35c-.09-.26-.38-.39-.64-.3l-2.35.86c-.26.09-.55-.04-.64-.3l-.86-2.35c-.09-.26-.38-.39-.64-.3l-2.35.86c-.26.09-.55-.04-.64-.3l-.86-2.35c-.09-.26.04-.55.3-.64l2.35-.86c.26-.09.55.04.64.3l.86,2.35c.09.26.38.39.64.3l2.35-.86c.26-.09.39-.38.3-.64l-.86-2.35c-.09-.26-.38-.39-.64-.3l-2.35.86c-.26.09-.55-.04-.64-.3l-.86-2.35c-.09-.26.04-.55.3-.64l2.35-.86c.26-.09.55.04.64.3l.86,2.35c.09.26.38.39.64.3l2.35-.86c.26-.09.55.04.64.3l.86,2.35c.09.26-.04.55-.3.64l-2.35.86c-.26.09-.39.38-.3.64l.86,2.35c.09.26.38.39.64.3l2.35-.86c.26-.09.55.04.64.3l.86,2.35c.09.26-.04.55-.3.64l-2.35.86c-.26.09-.55-.04-.64-.3Z" style="fill:#000; stroke-width:0px;"/><path d="M14.31,13.28c-.03-.09-.06-.17-.1-.25v-.03s-.01,0-.01,0c-.21-.44-.59-.78-1.06-.92-.16-.05-.33-.08-.5-.08-.97,0-1.75.78-1.75,1.75s.78,1.75,1.75,1.75c.16,0,.32-.03.47-.08l6.7,17.71s-1.81.87-1.75,2.37c.06,1.38,1.12,2.5,2.5,2.5.35,0,.69-.08,1-.21.88-.39,1.54-1.27,1.5-2.29-.06-1.5-8.75-22.22-8.75-22.22Z" style="fill:#000; stroke-width:0px;"/></g></svg>