<?xml version="1.0" encoding="UTF-8"?><svg id="Layer_2" xmlns="http://www.w3.org/2000/svg" viewBox="0 0 48 48"><g id="items"><rect width="48" height="48" style="fill:none; stroke-width:0px;"/><path d="M18.42,24.64l-4.21-10.94c-.14-.36-.06-.76.2-1.04,1.15-1.22,4.54-4.34,8.58-3.53,4.37.87,6.45,2.51,9.57.91.65-.34,1.43.17,1.43.9v11.88c0,.23-.07.45-.22.63-.44.52-1.56,1.42-3.78.68-2.68-.89-6.96-1.79-9.98.89-.52.46-1.35.27-1.6-.38Z" style="fill:#000; stroke-width:0px;"/><path d="M12.31,13.28c-.03-.09-.06-.17-.1-.25v-.03s-.01,0-.01,0c-.21-.44-.59-.78-1.06-.92-.16-.05-.33-.08-.5-.08-.97,0-1.75.78-1.75,1.75s.78,1.75,1.75,1.75c.16,0,.32-.03.47-.08l6.7,17.71s-1.81.87-1.75,2.37c.06,1.38,1.12,2.5,2.5,2.5.35,0,.69-.08,1-.21.88-.39,1.54-1.27,1.5-2.29-.06-1.5-8.75-22.22-8.75-22.22Z" style="fill:#000; stroke-width:0px;"/></g></svg>