<?xml version="1.0" encoding="UTF-8"?><svg id="Layer_2" xmlns="http://www.w3.org/2000/svg" viewBox="0 0 48 48"><g id="items"><rect width="48" height="48" style="fill:none; stroke-width:0px;"/><path d="M26.69,41.41c-1.69,0-3.27-.39-4.6-1.06-3.78-1.91-5.58-6.02-4.6-10.46.94-4.24,4.66-7.2,8.25-10.07,5.17-4.13,6.69-5.89,5.52-8.22-.37-.74-2.11-1.51-4.73-1.55-5.53-.03-13.25,3.05-17,10.07-.78,1.46-2.6,2.01-4.06,1.24-1.46-.78-2.02-2.6-1.24-4.06C9.21,8,19.04,3.96,26.62,4.04c4.85.06,8.5,1.84,10.02,4.86,3.53,7.07-2.64,12-7.15,15.6-2.78,2.22-5.65,4.52-6.14,6.69-.4,1.78.12,3.13,1.45,3.81,1.66.84,4.52.51,6.89-2.21,1.09-1.25,2.99-1.37,4.23-.28,1.25,1.09,1.37,2.99.28,4.23-2.92,3.34-6.4,4.67-9.52,4.67Z" style="fill:#161616; stroke-width:0px;"/></g></svg>