<?xml version="1.0" encoding="UTF-8"?><svg id="Layer_2" xmlns="http://www.w3.org/2000/svg" viewBox="0 0 48 48"><g id="items"><rect width="48" height="48" style="fill:none; stroke-width:0px;"/><path d="M24,8l15,12.62v16.38s-10,0-10,0v-5c0-1.1-.9-2-2-2h-6c-1.1,0-2,.9-2,2v5h-10v-16.38l15-12.62M24,5c-.69,0-1.37.23-1.93.7l-15,12.62c-.68.57-1.07,1.41-1.07,2.3v16.38c0,1.66,1.34,3,3,3h10c1.66,0,3-1.34,3-3v-4h4v4c0,1.66,1.34,3,3,3h10c.8,0,1.56-.32,2.12-.88.56-.56.88-1.33.88-2.12v-16.38c0-.89-.39-1.73-1.07-2.3l-15-12.62c-.56-.47-1.24-.7-1.93-.7h0Z" style="fill:#000; stroke-width:0px;"/></g></svg>