<svg width="37" height="36" viewBox="0 0 37 36" fill="none" xmlns="http://www.w3.org/2000/svg">
<path fill-rule="evenodd" clip-rule="evenodd" d="M11.3013 7.28619C11.8364 16.8124 19.5208 24.4969 29.0471 25.0319C26.7577 28.0123 23.1421 29.9129 19.0839 29.9129C12.126 29.9129 6.42037 24.2073 6.42037 17.2494C6.42037 13.1912 8.32091 9.57556 11.3013 7.28619ZM14.3587 6.22395C14.3587 14.8868 21.4465 21.9746 30.1093 21.9746C30.5123 21.9746 30.9152 21.9618 31.3146 21.9328C32.559 21.8422 33.7354 22.9966 33.2009 24.1241C30.6934 29.4133 25.2936 33 19.0839 33C10.421 33 3.33325 25.9122 3.33325 17.2494C3.33325 11.0397 6.91993 5.63984 12.2092 3.13233C13.3366 2.59784 14.4911 3.77425 14.4005 5.01867C14.3714 5.41802 14.3587 5.82098 14.3587 6.22395Z" fill="white"/>
</svg>
