<?xml version="1.0" encoding="UTF-8"?><svg id="Layer_2" xmlns="http://www.w3.org/2000/svg" viewBox="0 0 48 48"><g id="items"><rect width="48" height="48" style="fill:none; stroke-width:0px;"/><path d="M39.34,7.86h-23.25c-1.12,0-2.02.91-2.02,2.02v3.03h19.2c1.12,0,2.02.91,2.02,2.02v20.21h4.04c1.12,0,2.02-.91,2.02-2.02V9.88c0-1.12-.9-2.02-2.02-2.02Z" style="fill:#161616; stroke-width:0px;"/><path d="M31.45,14.74H8.2c-1.12,0-2.02.91-2.02,2.02v23.25c0,1.12.91,2.02,2.02,2.02h23.25c1.12,0,2.02-.91,2.02-2.02v-23.25c0-1.12-.9-2.02-2.02-2.02Z" style="fill:#161616; stroke-width:0px;"/></g></svg>