<?xml version="1.0" encoding="UTF-8"?><svg id="Layer_2" xmlns="http://www.w3.org/2000/svg" viewBox="0 0 48 48"><g id="items"><rect width="48" height="48" style="fill:none; stroke-width:0px;"/><path d="M27.12,10.67l-2.19-5.39c-.34-.83-1.51-.83-1.85,0l-2.19,5.39c1.01.21,2.05.33,3.12.33s2.11-.12,3.12-.33Z" style="fill:#161616; stroke-width:0px;"/><path d="M16.31,44.26c.39.39,1.02.39,1.41,0l5.58-5.56c.39-.39,1.02-.39,1.41,0l5.58,5.56c.39.39,1.02.39,1.41,0l5.88-5.86-10.46-25.73c-1.01.21-2.05.33-3.12.33s-2.11-.12-3.12-.33l-10.46,25.73,5.88,5.86Z" style="fill:#161616; stroke-width:0px;"/></g></svg>